<svg xmlns="http://www.w3.org/2000/svg" width="53" height="47" fill="none" viewBox="0 0 53 47"><path fill="#E51E56" d="M44.2604 0.00370421C44.309 0.00260368 44.3577 0.00113631 44.4077 3.57847e-05C44.8259 -0.00216527 45.1014 0.097249 45.4443 0.276635C45.4443 0.300846 45.4443 0.325058 45.4443 0.350003C45.4906 0.362109 45.5369 0.374215 45.5846 0.386687C45.5846 0.410899 45.5846 0.435111 45.5846 0.460056C45.6155 0.460056 45.6463 0.460056 45.6782 0.460056C45.7455 0.534892 45.7455 0.534892 45.8185 0.634306C45.8428 0.666588 45.8667 0.69887 45.8919 0.732253C45.9139 0.763434 45.9359 0.794616 45.9588 0.826898C45.9757 0.849275 45.992 0.871286 46.0089 0.894397C46.0935 1.04847 46.0697 1.21869 46.0701 1.38376C46.0711 1.42082 46.0725 1.4575 46.0734 1.49565C46.0748 1.71612 46.0393 1.87607 45.9125 2.07306C45.8447 2.18018 45.8077 2.29133 45.7689 2.40652C45.7128 2.5672 45.6524 2.72237 45.5743 2.87681C45.5261 2.97953 45.4873 3.08371 45.4475 3.18826C45.3793 3.36435 45.3007 3.53309 45.2109 3.70257C45.136 3.85481 45.0799 4.01072 45.0205 4.16663C44.9765 4.27521 44.9765 4.27521 44.9064 4.40141C44.8385 4.52834 44.7922 4.65123 44.7459 4.78402C44.6935 4.93223 44.6402 5.072 44.5555 5.21066C44.4465 5.39005 44.3857 5.57787 44.3188 5.769C44.2767 5.88418 44.2272 5.99387 44.171 6.10502C44.1229 6.20774 44.084 6.31192 44.0443 6.41647C43.976 6.59256 43.8974 6.7613 43.8076 6.93079C43.7327 7.08303 43.6766 7.23893 43.6172 7.39484C43.5732 7.50343 43.5732 7.50343 43.5031 7.62962C43.4352 7.75581 43.3889 7.87797 43.3426 8.01004C43.2771 8.19492 43.2004 8.36954 43.1059 8.54636C43.0306 8.69676 42.9745 8.85194 42.9156 9.00638C42.8716 9.11717 42.8215 9.22428 42.7678 9.33213C42.72 9.43595 42.6808 9.54123 42.641 9.64725C42.575 9.81747 42.5007 9.97741 42.4006 10.1374C42.3416 10.247 42.3047 10.36 42.2635 10.4748C42.227 10.5622 42.1901 10.6491 42.1526 10.736C42.0755 10.9151 42.0025 11.0941 41.9333 11.2749C41.8673 11.4451 41.7901 11.608 41.7027 11.7724C41.626 11.929 41.5675 12.0897 41.5071 12.2507C41.4683 12.3457 41.4683 12.3457 41.4215 12.3824C41.3893 12.4664 41.3893 12.4664 41.4215 12.5658C41.5226 12.6488 41.6405 12.7104 41.7607 12.7742C41.7925 12.7922 41.8247 12.8102 41.8575 12.8285C42.0044 12.9096 42.148 12.9815 42.3103 13.0427C42.3103 13.067 42.3103 13.0912 42.3103 13.1161C42.3355 13.1194 42.3613 13.1231 42.387 13.1264C42.5301 13.1605 42.6405 13.2159 42.7663 13.279C42.8127 13.3014 42.8585 13.3241 42.9062 13.3476C42.9586 13.378 42.9586 13.378 43.0119 13.4096C43.0119 13.4338 43.0119 13.458 43.0119 13.483C43.0582 13.483 43.1045 13.483 43.1523 13.483C43.1523 13.5072 43.1523 13.5314 43.1523 13.5563C43.1836 13.5644 43.2149 13.5728 43.2467 13.5813C43.4278 13.644 43.5831 13.7276 43.7458 13.8153C43.9577 13.932 43.9577 13.932 44.1813 14.0332C44.1813 14.0574 44.1813 14.0816 44.1813 14.1066C44.208 14.1106 44.2351 14.115 44.2627 14.1194C44.3787 14.1455 44.4653 14.1825 44.5672 14.2328C44.6168 14.2563 44.6168 14.2563 44.6673 14.2805C44.7047 14.3032 44.7047 14.3032 44.7426 14.3267C44.7426 14.3509 44.7426 14.3751 44.7426 14.4001C44.7889 14.4001 44.8353 14.4001 44.883 14.4001C44.883 14.4243 44.883 14.4485 44.883 14.4734C44.9143 14.4815 44.9456 14.4899 44.9775 14.4984C45.1585 14.5611 45.3138 14.6447 45.4766 14.7324C45.6884 14.8491 45.6884 14.8491 45.912 14.9503C45.912 14.9745 45.912 14.9987 45.912 15.0237C45.9438 15.0321 45.9761 15.0409 46.0089 15.0501C46.1754 15.107 46.3209 15.1822 46.4705 15.2621C46.5164 15.286 46.5164 15.286 46.5627 15.3106C46.8041 15.4386 47.0417 15.5707 47.2765 15.706C47.4547 15.8076 47.6371 15.8938 47.8299 15.9775C47.8299 16.0017 47.8299 16.0259 47.8299 16.0508C47.8551 16.0542 47.8808 16.0578 47.9066 16.0611C48.0497 16.0952 48.1601 16.1506 48.2859 16.2137C48.3322 16.2361 48.3781 16.2588 48.4258 16.2823C48.4604 16.3025 48.4955 16.323 48.5315 16.3443C48.5315 16.3685 48.5315 16.3927 48.5315 16.4177C48.5722 16.4239 48.5722 16.4239 48.6138 16.4302C48.7275 16.4562 48.8009 16.4914 48.8973 16.545C48.93 16.5626 48.9628 16.5806 48.9964 16.5993C49.0301 16.618 49.0643 16.6367 49.0989 16.6561C49.1662 16.6932 49.2336 16.7302 49.301 16.7673C49.3304 16.7838 49.3604 16.8003 49.3908 16.8172C49.4679 16.8601 49.4679 16.8601 49.5606 16.8946C49.5606 16.9188 49.5606 16.943 49.5606 16.968C49.5858 16.9713 49.6115 16.9749 49.6373 16.9782C49.7804 17.0123 49.8908 17.0677 50.0166 17.1308C50.0629 17.1532 50.1088 17.176 50.1565 17.1994C50.1911 17.2196 50.2262 17.2402 50.2622 17.2614C50.2622 17.2856 50.2622 17.3099 50.2622 17.3348C50.2935 17.3432 50.3249 17.3513 50.3572 17.3601C50.5354 17.4217 50.6869 17.5032 50.8469 17.5894C50.9077 17.6217 50.969 17.6539 51.0298 17.6866C51.0728 17.7093 51.0728 17.7093 51.1163 17.7328C51.1879 17.7699 51.2623 17.8036 51.3366 17.837C51.368 17.8528 51.3993 17.8686 51.4316 17.8851C51.4316 17.9093 51.4316 17.9335 51.4316 17.9584C51.4793 17.972 51.4793 17.972 51.5284 17.9859C51.6921 18.0406 51.8395 18.1077 51.9929 18.1785C51.9929 18.2027 51.9929 18.227 51.9929 18.2519C52.0238 18.2585 52.0547 18.2655 52.0865 18.2724C52.4611 18.4133 52.7647 18.6749 52.9102 18.9793C53.0056 19.2138 52.9953 19.4489 52.9944 19.6929C52.9944 19.7449 52.9949 19.7974 52.9953 19.8495C52.9963 19.9907 52.9958 20.132 52.9958 20.2732C52.9958 20.3913 52.9958 20.5094 52.9963 20.6276C52.9967 20.9064 52.9967 21.1852 52.9963 21.464C52.9958 21.7508 52.9963 22.0381 52.9977 22.3249C52.9986 22.5722 52.9991 22.8191 52.9986 23.0663C52.9986 23.2134 52.9986 23.3609 52.9995 23.508C53 23.6467 53 23.785 52.9991 23.9236C52.9986 23.9981 52.9995 24.073 53 24.1474C52.9963 24.5245 52.8831 24.7711 52.601 25.0752C52.5729 25.106 52.5453 25.1372 52.5163 25.1691C52.2071 25.4394 51.7927 25.5741 51.3381 25.6254C51.0817 25.6357 50.8254 25.635 50.5681 25.6342C50.49 25.6342 50.4114 25.6342 50.3328 25.6342C50.1177 25.6346 49.903 25.6342 49.6878 25.6339C49.4553 25.6335 49.2233 25.6335 48.9913 25.6339C48.589 25.6339 48.1872 25.6335 47.7854 25.6331C47.204 25.6324 46.623 25.6324 46.0416 25.632C45.0986 25.632 44.1556 25.6317 43.2126 25.6309C42.2967 25.6302 41.3804 25.6298 40.4645 25.6295C40.4084 25.6295 40.3518 25.6295 40.2933 25.6295C40.0103 25.6291 39.7268 25.6291 39.4434 25.6291C37.0938 25.6284 34.7438 25.6269 32.3938 25.6254C32.3938 25.6683 32.3942 25.7113 32.3942 25.7553C32.397 27.6449 32.4003 29.5345 32.4017 31.4241C32.4017 31.467 32.4017 31.467 32.4017 31.5107C32.4027 32.1325 32.4031 32.7539 32.4036 33.3757C32.4036 33.6806 32.4041 33.9854 32.4041 34.2902C32.4041 34.3203 32.4041 34.3508 32.4041 34.382C32.405 35.3655 32.4064 36.349 32.4083 37.3321C32.4101 38.3427 32.4111 39.3534 32.4115 40.3637C32.4115 40.5064 32.4115 40.6491 32.4115 40.7918C32.4115 40.834 32.4115 40.834 32.4115 40.8769C32.412 41.3292 32.413 41.7815 32.4139 42.2338C32.4148 42.6884 32.4153 43.1429 32.4153 43.5974C32.4148 43.8439 32.4153 44.0901 32.4162 44.3366C32.4172 44.5618 32.4172 44.7874 32.4167 45.013C32.4162 45.0945 32.4167 45.1763 32.4172 45.2577C32.4181 45.3685 32.4176 45.4797 32.4167 45.5905C32.4176 45.622 32.4181 45.6539 32.4186 45.6866C32.413 46.0894 32.1473 46.3902 31.8002 46.6734C31.448 46.9283 31.0845 46.9977 30.6144 46.994C30.5634 46.9944 30.5129 46.9947 30.4605 46.9947C30.2907 46.9955 30.1205 46.9947 29.9507 46.9944C29.8272 46.9947 29.7042 46.9947 29.5811 46.9951C29.3136 46.9958 29.0455 46.9958 28.778 46.9955C28.3799 46.9951 27.9819 46.9955 27.5833 46.9958C26.8723 46.9969 26.1613 46.9969 25.4503 46.9966C24.8278 46.9962 24.2056 46.9962 23.5835 46.9966C23.4998 46.9966 23.4165 46.9966 23.3328 46.9966C23.207 46.9969 23.0811 46.9969 22.9558 46.9969C21.7864 46.9973 20.617 46.9977 19.4476 46.9973C19.3812 46.9969 19.3812 46.9969 19.3138 46.9969C18.956 46.9969 18.5977 46.9969 18.2398 46.9966C16.8436 46.9962 15.4468 46.9966 14.0506 46.9973C12.4812 46.9988 10.9124 46.9991 9.3435 46.9988C9.17605 46.9988 9.00905 46.9988 8.8416 46.9988C8.80043 46.9988 8.75927 46.9988 8.7167 46.9988C8.09505 46.9984 7.47293 46.9988 6.85128 46.9995C6.14402 47.0002 5.43677 47.0002 4.72999 46.9991C4.3338 46.9988 3.93807 46.9988 3.54234 46.9995C3.27806 47.0002 3.01378 46.9999 2.74949 46.9991C2.59887 46.9988 2.44826 46.9988 2.29764 46.9991C2.13532 46.9999 1.97254 46.9995 1.81023 46.9984C1.76392 46.9991 1.71714 46.9995 1.66943 46.9999C1.18904 46.9951 0.835417 46.83 0.491613 46.5758C0.079049 46.2317 0.00374037 45.8329 0.00701469 45.3755C0.00701469 45.3296 0.00654647 45.2841 0.00654647 45.2372C0.00607871 45.111 0.00607871 44.9848 0.00654647 44.8586C0.00701423 44.721 0.00654601 44.5838 0.00607825 44.4463C0.00561049 44.2056 0.00514513 43.965 0.00561289 43.7243C0.00608065 43.3663 0.00561243 43.0082 0.00514467 42.6502C0.00420915 42.0108 0.00420824 41.3714 0.00420824 40.7324C0.004676 40.1729 0.004676 39.6135 0.00420824 39.0537C0.00420824 38.9789 0.00420824 38.9036 0.00420824 38.8288C0.00420824 38.7158 0.00420824 38.6025 0.00420824 38.4895C0.00374048 37.4385 0.00327226 36.3871 0.00374002 35.3361C0.00374002 35.2965 0.00374002 35.2569 0.00374002 35.2162C0.00374002 34.8944 0.00374048 34.5723 0.00420824 34.2506C0.004676 32.9953 0.00420733 31.7396 0.00327181 30.4839C0.00186853 29.0737 0.0014018 27.6632 0.0014018 26.2527C0.0014018 26.1023 0.00187001 25.9519 0.00187001 25.8019C0.00187001 25.7648 0.00187001 25.7278 0.00187001 25.6896C0.00187001 25.1306 0.00140134 24.5711 0.000933578 24.0121C-1.94137e-06 23.3763 -1.94137e-06 22.7406 0.000933578 22.1048C0.00140134 21.749 0.00140088 21.3932 0.000465362 21.0373C-2.39817e-06 20.7996 -1.94137e-06 20.5623 0.000933578 20.3246C0.00140134 20.1892 0.00140134 20.0538 0.000933578 19.9181C-1.94137e-06 19.7725 0.000466275 19.6265 0.0014018 19.4805C0.000934035 19.4386 0.00046776 19.3964 0 19.3532C0.00327432 19.0997 0.0542587 18.9133 0.211894 18.6921C0.229669 18.6668 0.247445 18.6411 0.265687 18.6151C0.308721 18.5545 0.353625 18.4948 0.398998 18.4353C0.42987 18.4353 0.460742 18.4353 0.49255 18.4353C0.507986 18.399 0.523422 18.3627 0.539326 18.3253C0.570198 18.3253 0.60107 18.3253 0.632878 18.3253C0.632878 18.3011 0.632878 18.2768 0.632878 18.2519C0.705848 18.2057 0.781157 18.1628 0.85787 18.1213C1.04264 18.0186 1.22179 17.9133 1.39579 17.8C1.60114 17.6672 1.80742 17.5355 2.01604 17.406C2.04411 17.388 2.07264 17.37 2.10211 17.3513C2.30605 17.2247 2.30605 17.2247 2.41037 17.2247C2.41037 17.2005 2.41037 17.1763 2.41037 17.1514C2.47866 17.1041 2.47866 17.1041 2.56847 17.0549C2.59747 17.0388 2.62694 17.0222 2.65734 17.0054C2.7378 16.968 2.7378 16.968 2.83135 16.968C2.83135 16.9437 2.83135 16.9195 2.83135 16.8946C2.99319 16.7845 2.99319 16.7845 3.11201 16.7845C3.11201 16.7603 3.11201 16.7361 3.11201 16.7112C3.17375 16.6991 3.23549 16.687 3.29911 16.6745C3.29911 16.6503 3.29911 16.6261 3.29911 16.6011C3.37629 16.5468 3.37629 16.5468 3.48341 16.4841C3.54094 16.45 3.54094 16.45 3.59988 16.4151C3.63964 16.3916 3.6794 16.3682 3.72009 16.3443C3.79166 16.3007 3.86276 16.2574 3.93386 16.2137C4.00262 16.1715 4.07185 16.1294 4.14108 16.0875C4.17616 16.0659 4.21124 16.0446 4.24773 16.0222C4.28094 16.0021 4.31415 15.9822 4.34876 15.9613C4.3787 15.9434 4.40864 15.925 4.43904 15.9063C4.51528 15.8674 4.51528 15.8674 4.60884 15.8674C4.60884 15.8432 4.60884 15.819 4.60884 15.7941C4.68742 15.7387 4.68742 15.7387 4.79033 15.6792C4.82401 15.6594 4.85768 15.6396 4.8923 15.6194C4.98304 15.574 4.98304 15.574 5.0766 15.574C5.0766 15.5497 5.0766 15.5255 5.0766 15.5006C5.1622 15.4412 5.1622 15.4412 5.27539 15.3744C5.31235 15.3524 5.3493 15.3307 5.38719 15.308C5.44192 15.2761 5.44192 15.2761 5.49758 15.2438C5.5481 15.2122 5.5481 15.2122 5.59908 15.1803C5.68468 15.1337 5.68468 15.1337 5.77824 15.1337C5.77824 15.1095 5.77824 15.0853 5.77824 15.0604C5.85682 15.005 5.85682 15.005 5.95973 14.9456C5.99341 14.9257 6.02708 14.9059 6.0617 14.8858C6.15244 14.8403 6.15244 14.8403 6.246 14.8403C6.246 14.8161 6.246 14.7918 6.246 14.7669C6.32177 14.7177 6.40036 14.6719 6.47988 14.6268C6.72311 14.4881 6.95793 14.3428 7.1904 14.1935C7.45001 14.0273 7.71055 13.8626 7.97671 13.7031C8.02863 13.6711 8.02863 13.6711 8.08195 13.6389C8.13247 13.608 8.13247 13.608 8.18439 13.5769C8.21433 13.5589 8.24427 13.5405 8.27467 13.5218C8.35092 13.483 8.35092 13.483 8.44447 13.483C8.44447 13.4587 8.44447 13.4345 8.44447 13.4096C8.60631 13.2995 8.60631 13.2995 8.72512 13.2995C8.72512 13.2753 8.72512 13.2511 8.72512 13.2262C8.78687 13.2141 8.84861 13.202 8.91223 13.1895C8.91223 13.1653 8.91223 13.1411 8.91223 13.1161C9.07407 13.0061 9.07407 13.0061 9.19288 13.0061C9.19288 12.9818 9.19288 12.9576 9.19288 12.9327C9.26118 12.8854 9.26118 12.8854 9.35099 12.8362C9.37999 12.8201 9.40946 12.8036 9.43986 12.7867C9.52032 12.7493 9.52032 12.7493 9.61387 12.7493C9.61387 12.7251 9.61387 12.7008 9.61387 12.6759C9.69245 12.6205 9.69245 12.6205 9.79536 12.5611C9.82904 12.5413 9.86272 12.5215 9.89733 12.5013C9.98808 12.4558 9.98808 12.4558 10.0816 12.4558C10.0816 12.4316 10.0816 12.4074 10.0816 12.3824C10.1593 12.3318 10.2397 12.2841 10.3216 12.2379C10.5817 12.0893 10.8352 11.9345 11.0854 11.7753C11.2875 11.6487 11.2875 11.6487 11.3914 11.6487C11.3914 11.6245 11.3914 11.6003 11.3914 11.5754C11.4699 11.52 11.4699 11.52 11.5728 11.4606C11.6065 11.4407 11.6402 11.4209 11.6748 11.4008C11.7656 11.3553 11.7656 11.3553 11.8591 11.3553C11.8591 11.3311 11.8591 11.3068 11.8591 11.2819C11.9363 11.2276 11.9363 11.2276 12.0434 11.1649C12.0818 11.1421 12.1201 11.1194 12.1594 11.0963C12.1992 11.0728 12.2389 11.0493 12.2801 11.0251C12.3545 10.98 12.4284 10.9349 12.5023 10.8897C12.5369 10.8688 12.5715 10.8479 12.6071 10.8263C12.6852 10.7779 12.7624 10.7287 12.8386 10.6788C12.935 10.6216 12.935 10.6216 13.0285 10.6216C13.0285 10.5974 13.0285 10.5732 13.0285 10.5482C13.1015 10.502 13.1768 10.4591 13.2535 10.4176C13.4383 10.3149 13.6174 10.2096 13.7914 10.0963C13.9968 9.96347 14.2031 9.83177 14.4117 9.70228C14.4397 9.6843 14.4683 9.66633 14.4977 9.64762C14.7017 9.52106 14.7017 9.52106 14.806 9.52106C14.806 9.49685 14.806 9.47264 14.806 9.44769C14.8743 9.40037 14.8743 9.40037 14.9641 9.35121C14.9931 9.33507 15.0226 9.31856 15.053 9.30169C15.1334 9.26427 15.1334 9.26427 15.227 9.26427C15.227 9.24006 15.227 9.21585 15.227 9.1909C15.3056 9.13551 15.3056 9.13551 15.4085 9.07608C15.4422 9.05627 15.4758 9.03646 15.5104 9.01628C15.6012 8.97079 15.6012 8.9708 15.6947 8.9708C15.6947 8.94658 15.6947 8.92237 15.6947 8.89743C15.7719 8.84313 15.7719 8.84313 15.879 8.7804C15.9174 8.75766 15.9558 8.73492 15.9955 8.71144C16.0353 8.68796 16.075 8.66448 16.1157 8.64064C16.1873 8.59698 16.2584 8.5537 16.3295 8.51004C16.3983 8.46785 16.4675 8.42567 16.5367 8.38385C16.5718 8.3622 16.6069 8.34093 16.6434 8.31855C16.6766 8.29837 16.7098 8.27856 16.7444 8.25765C16.7743 8.23968 16.8043 8.22134 16.8347 8.20263C16.9109 8.16374 16.9109 8.16374 17.0045 8.16374C17.0045 8.13953 17.0045 8.11532 17.0045 8.09037C17.0831 8.03498 17.0831 8.03498 17.186 7.97555C17.2196 7.95574 17.2533 7.93593 17.2879 7.91576C17.3787 7.87027 17.3787 7.87027 17.4722 7.87027C17.4722 7.84606 17.4722 7.82185 17.4722 7.7969C18.1388 7.30827 18.7609 7.12851 19.6534 7.13365C19.7268 7.13365 19.7268 7.13365 19.8017 7.13402C19.9654 7.13438 20.1286 7.13512 20.2919 7.13585C20.4093 7.13622 20.5267 7.13658 20.6441 7.13695C20.8644 7.13768 21.0843 7.13805 21.3041 7.13915C21.7363 7.14062 22.1681 7.14172 22.6003 7.14245C22.6686 7.14245 22.7364 7.14282 22.8047 7.14282C22.9076 7.14282 23.011 7.14319 23.1144 7.14355C23.5031 7.14429 23.8913 7.14502 24.28 7.14576C24.3156 7.14576 24.3511 7.14612 24.3876 7.14612C24.9634 7.14722 25.5388 7.14942 26.1146 7.15162C26.7063 7.15383 27.298 7.15493 27.8892 7.15566C28.2541 7.15603 28.6185 7.15713 28.9833 7.15933C29.2626 7.16043 29.5418 7.1608 29.8216 7.1608C29.9357 7.1608 30.0503 7.16116 30.1649 7.16226C30.3211 7.16336 30.4774 7.16336 30.6341 7.16263C30.7019 7.16373 30.7019 7.16373 30.7711 7.16483C31.0981 7.16153 31.2646 7.08486 31.505 6.91648C31.5602 6.88456 31.6154 6.85338 31.6716 6.82257C31.6973 6.80863 31.723 6.79432 31.7497 6.77965C31.7749 6.76571 31.8007 6.75177 31.8268 6.73746C31.853 6.72279 31.8797 6.70811 31.9073 6.6927C32.1024 6.58632 32.1024 6.58632 32.2067 6.58632C32.2067 6.56211 32.2067 6.5379 32.2067 6.51295C32.2717 6.46893 32.2717 6.46893 32.3624 6.41977C32.3961 6.40143 32.4293 6.38346 32.4635 6.36475C32.4995 6.34567 32.535 6.32623 32.572 6.30642C32.6454 6.2668 32.7184 6.22718 32.7909 6.18756C32.8452 6.15822 32.8452 6.15822 32.8999 6.1285C33.0772 6.03129 33.2498 5.92967 33.4228 5.82806C33.5164 5.77927 33.5164 5.77927 33.61 5.77927C33.61 5.75506 33.61 5.73084 33.61 5.7059C33.8153 5.59585 33.8153 5.59585 33.9374 5.59585C33.9374 5.57164 33.9374 5.54742 33.9374 5.52248C34.0277 5.46635 34.1175 5.41499 34.2124 5.364C34.2728 5.33099 34.3331 5.29797 34.393 5.26496C34.4257 5.24735 34.458 5.22937 34.4912 5.2114C34.6666 5.11455 34.8397 5.01587 35.0132 4.91719C35.0843 4.87684 35.1554 4.83648 35.227 4.79613C35.3617 4.72019 35.496 4.64352 35.6302 4.56685C35.6896 4.5331 35.749 4.49936 35.8084 4.46524C35.8356 4.44983 35.8631 4.43406 35.8907 4.41792C36.0788 4.3119 36.0788 4.3119 36.1826 4.3119C36.1826 4.28769 36.1826 4.26348 36.1826 4.23853C36.388 4.12848 36.388 4.12848 36.5101 4.12848C36.5101 4.10427 36.5101 4.08005 36.5101 4.05511C36.6003 3.99898 36.6901 3.94762 36.7851 3.89663C36.8445 3.86398 36.9044 3.83134 36.9643 3.79869C36.9961 3.78071 37.0283 3.7631 37.0615 3.74513C37.2477 3.64278 37.4311 3.53823 37.6154 3.43368C37.6514 3.41314 37.6874 3.39296 37.7244 3.37205C37.9171 3.2631 37.9171 3.2631 38.1061 3.14974C38.194 3.10132 38.194 3.10132 38.2875 3.10132C38.2875 3.07711 38.2875 3.0529 38.2875 3.02795C38.3339 3.02795 38.3802 3.02795 38.4279 3.02795C38.4279 3.00374 38.4279 2.97953 38.4279 2.95458C38.6332 2.84453 38.6332 2.84453 38.7553 2.84453C38.7553 2.82032 38.7553 2.79611 38.7553 2.77116C38.8751 2.68679 38.9181 2.66111 39.0827 2.66111C39.0827 2.6369 39.0827 2.61269 39.0827 2.58774C39.152 2.54005 39.152 2.54005 39.2488 2.48649C39.2843 2.46668 39.3199 2.44687 39.3564 2.42633C39.3943 2.40542 39.4326 2.38451 39.4714 2.36287C39.5491 2.31995 39.6263 2.27703 39.7035 2.23374C39.7413 2.21283 39.7792 2.19192 39.8181 2.17027C39.9967 2.07049 40.1717 1.96778 40.3471 1.86469C40.4392 1.81737 40.4392 1.81737 40.5328 1.81737C40.5328 1.79316 40.5328 1.76895 40.5328 1.744C40.7381 1.63395 40.7381 1.63395 40.8602 1.63395C40.8602 1.60974 40.8602 1.58553 40.8602 1.56058C41.0656 1.45053 41.0656 1.45053 41.1877 1.45053C41.1877 1.42632 41.1877 1.40211 41.1877 1.37716C41.234 1.37716 41.2803 1.37716 41.328 1.37716C41.328 1.35295 41.328 1.32874 41.328 1.30379C41.4183 1.24767 41.5081 1.19631 41.603 1.14532C41.6624 1.11267 41.7223 1.08002 41.7822 1.04737C41.814 1.02939 41.8463 1.01179 41.8795 0.993811C42.0656 0.891462 42.249 0.786912 42.4333 0.682362C42.4693 0.661819 42.5053 0.641643 42.5423 0.620733C42.735 0.511781 42.735 0.511781 42.924 0.398426C43.0119 0.350003 43.0119 0.350003 43.1055 0.350003C43.1055 0.325792 43.1055 0.30158 43.1055 0.276635C43.1794 0.23188 43.1794 0.23188 43.2781 0.184924C43.3099 0.16915 43.3422 0.153743 43.3749 0.137968C43.6729 0.0106742 43.9269 0.00517158 44.2604 0.00370421ZM40.6731 5.19232C40.7199 5.26569 40.7199 5.26569 40.7199 5.26569L40.6731 5.19232ZM40.3686 5.3541C40.3368 5.37317 40.3055 5.39188 40.2727 5.41133C40.24 5.4315 40.2072 5.45131 40.1731 5.47185C40.0767 5.52982 40.0767 5.52982 39.9799 5.58814C39.9476 5.60759 39.9154 5.62666 39.8826 5.64684C39.63 5.79908 39.3812 5.94471 39.1047 6.06981C39.0823 6.08301 39.0594 6.09585 39.036 6.10943C39.036 6.13364 39.036 6.15785 39.036 6.18279C39.0051 6.1905 38.9738 6.1982 38.9419 6.20627C38.7534 6.2734 38.6028 6.36805 38.4396 6.4671C38.1987 6.612 37.9578 6.7514 37.6986 6.87649C37.6767 6.8897 37.6551 6.90291 37.6327 6.91648C37.6327 6.94069 37.6327 6.9649 37.6327 6.98985C37.6009 6.99828 37.5686 7.00709 37.5359 7.01626C37.3707 7.07275 37.2276 7.14759 37.0803 7.22829C37.0522 7.24297 37.0246 7.25764 36.9956 7.27305C36.9254 7.3112 36.8581 7.35192 36.7907 7.39337C36.7907 7.41759 36.7907 7.4418 36.7907 7.46674C36.7542 7.47811 36.7177 7.48949 36.6799 7.50123C36.5606 7.53754 36.5606 7.53754 36.4633 7.57679C36.4633 7.60101 36.4633 7.62522 36.4633 7.65016C36.4366 7.66007 36.41 7.66997 36.3824 7.68024C36.2738 7.72463 36.1761 7.77416 36.075 7.82845C36.0372 7.84899 35.9993 7.86953 35.96 7.89044C35.901 7.92236 35.901 7.92236 35.8407 7.95501C35.8019 7.97592 35.763 7.99683 35.7233 8.01811C35.647 8.05919 35.5708 8.10065 35.495 8.1421C35.4258 8.17952 35.3561 8.21693 35.2864 8.25399C35.2092 8.29544 35.1344 8.33946 35.06 8.38385C35.06 8.40806 35.06 8.43227 35.06 8.45722C35.0235 8.46859 34.987 8.47996 34.9491 8.4917C34.8299 8.52802 34.8299 8.52802 34.7326 8.56727C34.7326 8.59148 34.7326 8.61569 34.7326 8.64064C34.7059 8.64981 34.6788 8.65861 34.6507 8.66815C34.5314 8.71987 34.4529 8.78407 34.3584 8.86074C34.4575 8.91577 34.5572 8.9708 34.6568 9.02582C34.6849 9.0416 34.7129 9.05737 34.7424 9.07351C34.8874 9.16155 34.8874 9.16155 35.06 9.1909C35.06 9.21511 35.06 9.23932 35.06 9.26427C35.1325 9.29582 35.1325 9.29582 35.2064 9.32847C35.322 9.37982 35.4328 9.43412 35.5423 9.49355C35.6564 9.56435 35.6564 9.56435 35.7616 9.55774C35.7616 9.58195 35.7616 9.60617 35.7616 9.63111C35.808 9.63111 35.8543 9.63111 35.902 9.63111C35.902 9.65532 35.902 9.67953 35.902 9.70448C36.0035 9.76391 36.0035 9.76391 36.133 9.8237C36.3445 9.92569 36.5508 10.0313 36.7547 10.1421C36.8347 10.1876 36.8347 10.1876 36.931 10.1814C36.931 10.2056 36.931 10.2298 36.931 10.2547C37.1153 10.3395 37.2908 10.4173 37.4924 10.4748C37.4924 10.4991 37.4924 10.5233 37.4924 10.5482C37.5387 10.5482 37.585 10.5482 37.6327 10.5482C37.6327 10.5724 37.6327 10.5966 37.6327 10.6216C37.7435 10.6884 37.7435 10.6883 37.8811 10.7544C37.9274 10.7775 37.9737 10.801 38.0209 10.8248C38.1439 10.8872 38.1439 10.8872 38.2875 10.8784C38.2997 10.8472 38.3114 10.8164 38.3236 10.7845C38.4017 10.5827 38.4812 10.3831 38.579 10.1869C38.6262 10.0838 38.6655 9.97888 38.7057 9.87396C38.7736 9.69788 38.8521 9.5295 38.9424 9.35965C39.0168 9.20777 39.0734 9.0515 39.1328 8.89559C39.1763 8.78737 39.1763 8.78737 39.2465 8.66118C39.3147 8.53425 39.3611 8.41099 39.4074 8.2782C39.4705 8.09881 39.5421 7.93263 39.6473 7.76609C39.7072 7.65677 39.7437 7.54451 39.7844 7.43006C39.8209 7.34275 39.8578 7.25544 39.8957 7.1685C39.9724 6.98985 40.0459 6.81046 40.1151 6.62961C40.181 6.45939 40.2582 6.29615 40.3452 6.1318C40.4196 5.98103 40.4776 5.82659 40.5361 5.67215C40.5665 5.59401 40.5983 5.51624 40.632 5.43921C40.6778 5.34493 40.6778 5.34493 40.6731 5.26569C40.5146 5.26569 40.4898 5.2811 40.3686 5.3541ZM19.2848 10.2958C19.0257 10.4708 19.0257 10.4708 18.9223 10.5115C18.9223 10.5357 18.9223 10.56 18.9223 10.5849C18.8952 10.5948 18.8676 10.6051 18.8395 10.6153C18.7389 10.6568 18.6557 10.7023 18.5659 10.7566C18.4194 10.8446 18.2707 10.9275 18.1182 11.009C17.947 11.1021 17.8048 11.2012 17.6593 11.3186C17.5817 11.3553 17.5036 11.392 17.4255 11.4286C17.4255 11.4528 17.4255 11.4771 17.4255 11.502C17.2851 11.557 17.2851 11.557 17.1448 11.6121C17.1448 11.6363 17.1448 11.6605 17.1448 11.6854C17.106 11.7001 17.106 11.7001 17.0658 11.7151C16.9479 11.7628 16.8347 11.8109 16.7238 11.8688C16.7238 11.8931 16.7238 11.9173 16.7238 11.9422C16.699 11.9514 16.6738 11.9602 16.648 11.9697C16.5096 12.0266 16.3828 12.0901 16.2561 12.1623C16.2561 12.1865 16.2561 12.2107 16.2561 12.2357C16.2186 12.2485 16.2186 12.2485 16.1803 12.2617C16.0371 12.3226 15.9132 12.3997 15.7855 12.4785C15.5409 12.6286 15.2925 12.7716 15.0375 12.9107C15.0076 12.9301 14.9777 12.9496 14.9463 12.9694C14.9463 12.9936 14.9463 13.0178 14.9463 13.0427C14.9215 13.0519 14.8963 13.0607 14.8706 13.0703C14.7321 13.1271 14.6053 13.1906 14.4786 13.2628C14.4786 13.2871 14.4786 13.3113 14.4786 13.3362C14.4533 13.3454 14.4281 13.3542 14.4019 13.3637C14.2667 13.4199 14.1465 13.4863 14.0225 13.5563C13.9767 13.582 13.9304 13.6077 13.8831 13.6341C13.848 13.6568 13.8129 13.6796 13.7769 13.7031C13.7769 13.7273 13.7769 13.7515 13.7769 13.7764C13.7521 13.7856 13.7269 13.7944 13.7012 13.8039C13.5627 13.8608 13.4359 13.9243 13.3092 13.9965C13.3092 14.0207 13.3092 14.045 13.3092 14.0699C13.282 14.0798 13.2549 14.0901 13.2268 14.1003C12.9158 14.228 12.6468 14.4257 12.3769 14.5996C11.9934 14.8447 11.6107 15.0842 11.1982 15.2996C11.1551 15.3263 11.1551 15.3263 11.1107 15.3538C11.1107 15.3781 11.1107 15.4023 11.1107 15.4272C11.0859 15.4364 11.0606 15.4452 11.0349 15.4547C10.8965 15.5116 10.7697 15.5751 10.6429 15.6473C10.6429 15.6715 10.6429 15.6957 10.6429 15.7207C10.5494 15.7574 10.4558 15.7941 10.3623 15.8307C10.3623 15.855 10.3623 15.8792 10.3623 15.9041C10.3127 15.917 10.3127 15.917 10.2617 15.9305C10.1059 15.9852 10.0002 16.0549 9.87114 16.1426C9.66298 16.2823 9.45156 16.4173 9.23405 16.5483C9.19475 16.5718 9.19475 16.5718 9.155 16.596C8.97117 16.7064 8.97117 16.7064 8.86545 16.7478C8.86545 16.7721 8.86545 16.7963 8.86545 16.8212C8.84019 16.8304 8.81493 16.8392 8.78874 16.8487C8.65356 16.9049 8.53334 16.9713 8.40939 17.0413C8.36355 17.067 8.31724 17.0927 8.26999 17.1191C8.21761 17.1532 8.2176 17.1532 8.16381 17.1881C8.16381 17.2123 8.16381 17.2365 8.16381 17.2614C8.13902 17.2706 8.11376 17.2794 8.08804 17.2889C7.94958 17.3458 7.82281 17.4093 7.69605 17.4815C7.69605 17.5057 7.69605 17.53 7.69605 17.5549C7.67079 17.5637 7.64553 17.5725 7.61981 17.5813C7.48041 17.6404 7.36207 17.7123 7.23718 17.7886C7.21099 17.8047 7.18432 17.8209 7.15719 17.8374C6.92378 17.9797 6.69271 18.1253 6.4621 18.2706C6.2619 18.3964 6.0603 18.5208 5.85729 18.6437C5.83156 18.6595 5.8063 18.6749 5.78011 18.6906C5.68796 18.746 5.60142 18.7981 5.49758 18.8388C5.49758 18.8631 5.49758 18.8873 5.49758 18.9122C5.40403 18.9489 5.31048 18.9856 5.21692 19.0223C5.21692 19.0465 5.21692 19.0707 5.21692 19.0956C5.15518 19.1077 5.09344 19.1198 5.02982 19.1323C5.02982 19.1565 5.02982 19.1807 5.02982 19.2057C4.93627 19.2424 4.84272 19.2791 4.74916 19.3157C4.74916 19.34 4.74916 19.3642 4.74916 19.3891C4.72344 19.399 4.69724 19.4086 4.67011 19.4188C4.55224 19.4665 4.43904 19.5146 4.32818 19.5725C4.32818 19.5967 4.32818 19.621 4.32818 19.6459C4.29076 19.6595 4.29076 19.6595 4.2524 19.6734C4.11395 19.7303 3.98718 19.7937 3.86042 19.866C3.86042 19.8902 3.86042 19.9144 3.86042 19.9394C3.81552 19.9563 3.81552 19.9563 3.77014 19.9739C3.67659 20.0065 3.67659 20.0065 3.62654 20.0494C3.62233 20.0986 3.62093 20.1477 3.62093 20.1973C3.62093 20.2292 3.62093 20.2607 3.62093 20.2937C3.62093 20.329 3.6214 20.3642 3.6214 20.4005C3.6214 20.4372 3.6214 20.4742 3.6214 20.512C3.6214 20.6345 3.62186 20.7571 3.62186 20.8796C3.62233 20.964 3.62233 21.0487 3.62233 21.1334C3.62233 21.3569 3.6228 21.5803 3.62327 21.8033C3.62373 22.0311 3.6242 22.2589 3.6242 22.4864C3.62467 22.9335 3.62561 23.3807 3.62654 23.8279C3.68922 23.7989 3.75143 23.7699 3.81364 23.7406C3.84873 23.7245 3.88334 23.7083 3.91889 23.6918C3.94602 23.676 3.97315 23.6606 4.00075 23.6445C4.00075 23.6203 4.00075 23.5961 4.00075 23.5711C4.02601 23.5619 4.05174 23.5528 4.07746 23.5436C4.21264 23.4875 4.33286 23.4211 4.45681 23.351C4.50312 23.3253 4.54896 23.2996 4.59667 23.2729C4.63129 23.2501 4.66637 23.2277 4.70239 23.2043C4.70239 23.1801 4.70239 23.1558 4.70239 23.1309C4.79594 23.0942 4.88949 23.0575 4.98304 23.0208C4.98304 22.9966 4.98304 22.9724 4.98304 22.9475C5.0083 22.9383 5.0331 22.9291 5.05929 22.92C5.19728 22.8627 5.32451 22.7993 5.4508 22.7274C5.4508 22.7032 5.4508 22.679 5.4508 22.654C5.4756 22.6456 5.50039 22.6371 5.52564 22.6287C5.6758 22.5645 5.80583 22.4827 5.93915 22.3994C5.96768 22.3818 5.99621 22.3642 6.02568 22.3459C6.25254 22.2043 6.47473 22.0586 6.69317 21.9093C6.81058 21.8301 6.92846 21.7582 7.05896 21.6932C7.09919 21.6712 7.13989 21.6492 7.18152 21.6268C7.18152 21.6026 7.18152 21.5784 7.18152 21.5535C7.20678 21.5443 7.2325 21.5351 7.25823 21.526C7.39341 21.4698 7.51363 21.4034 7.63758 21.3334C7.68389 21.3077 7.72973 21.282 7.77744 21.2552C7.81206 21.2325 7.84714 21.2101 7.88316 21.1866C7.88316 21.1624 7.88316 21.1382 7.88316 21.1133C7.90842 21.1041 7.93321 21.0949 7.9594 21.0858C8.09739 21.0285 8.22462 20.9651 8.35092 20.8932C8.35092 20.869 8.35092 20.8447 8.35092 20.8198C8.37617 20.8106 8.4019 20.8015 8.42763 20.7923C8.56281 20.7362 8.68303 20.6698 8.80698 20.5997C8.85329 20.574 8.89913 20.5483 8.94684 20.5216C8.98146 20.4988 9.01654 20.4764 9.05256 20.453C9.05256 20.4287 9.05256 20.4045 9.05256 20.3796C9.07828 20.3708 9.10401 20.362 9.13067 20.3528C9.26445 20.2956 9.37157 20.2248 9.48804 20.1477C9.63866 20.0494 9.78834 19.9548 9.95019 19.8682C9.99369 19.8433 10.0372 19.8183 10.0816 19.7926C10.0816 19.7684 10.0816 19.7442 10.0816 19.7193C10.1069 19.7101 10.1326 19.7009 10.1583 19.6918C10.2935 19.6356 10.4137 19.5692 10.5377 19.4992C10.584 19.4735 10.6298 19.4478 10.6776 19.421C10.7122 19.3983 10.7472 19.3759 10.7833 19.3524C10.7833 19.3282 10.7833 19.304 10.7833 19.2791C10.8768 19.2424 10.9704 19.2057 11.0639 19.169C11.0639 19.1448 11.0639 19.1206 11.0639 19.0956C11.0887 19.0872 11.1135 19.0788 11.1392 19.07C11.2866 19.0072 11.4133 18.9273 11.5434 18.8455C11.5719 18.8278 11.6004 18.8102 11.6294 18.7923C11.8806 18.6356 12.129 18.4768 12.3769 18.3176C12.6085 18.1694 12.8437 18.0263 13.0842 17.8876C13.1455 17.8517 13.2044 17.8135 13.2624 17.775C13.2624 17.7508 13.2624 17.7266 13.2624 17.7016C13.2877 17.6925 13.3124 17.6833 13.3386 17.6741C13.4766 17.6169 13.6039 17.5534 13.7302 17.4815C13.7302 17.4573 13.7302 17.4331 13.7302 17.4082C13.8462 17.3718 13.8462 17.3718 13.964 17.3348C13.964 17.3106 13.964 17.2864 13.964 17.2614C13.9893 17.2523 14.0141 17.2431 14.0403 17.2339C14.1783 17.1767 14.3055 17.1132 14.4318 17.0413C14.4318 17.0171 14.4318 16.9929 14.4318 16.968C14.4571 16.9588 14.4828 16.9496 14.5085 16.9404C14.6437 16.8843 14.7639 16.8179 14.8879 16.7478C14.9342 16.7222 14.98 16.6961 15.0277 16.6697C15.0623 16.647 15.0974 16.6242 15.1334 16.6011C15.1334 16.5769 15.1334 16.5527 15.1334 16.5277C15.1592 16.5189 15.1849 16.5101 15.2115 16.501C15.3453 16.4437 15.4524 16.3729 15.5689 16.2959C15.7195 16.1976 15.8692 16.1029 16.0311 16.0164C16.0746 15.9914 16.1181 15.9665 16.1625 15.9408C16.1625 15.9166 16.1625 15.8924 16.1625 15.8674C16.1878 15.8583 16.2135 15.8491 16.2392 15.8399C16.3744 15.7838 16.4946 15.7174 16.6186 15.6473C16.6649 15.6216 16.7107 15.5956 16.7584 15.5692C16.793 15.5464 16.8281 15.5237 16.8641 15.5006C16.8641 15.4764 16.8641 15.4522 16.8641 15.4272C16.9577 15.3905 17.0512 15.3538 17.1448 15.3172C17.1448 15.293 17.1448 15.2687 17.1448 15.2438C17.2065 15.2317 17.2683 15.2196 17.3319 15.2071C17.3319 15.1829 17.3319 15.1587 17.3319 15.1337C17.4255 15.0971 17.519 15.0604 17.6126 15.0237C17.6126 14.9995 17.6126 14.9753 17.6126 14.9503C17.6374 14.9419 17.6621 14.9334 17.6874 14.925C17.8376 14.8608 17.9676 14.779 18.1009 14.6957C18.1294 14.6781 18.158 14.6605 18.1874 14.6422C18.4143 14.5006 18.6365 14.3549 18.8549 14.2056C18.9723 14.1264 19.0902 14.0545 19.2207 13.9896C19.2609 13.9676 19.3016 13.9455 19.3433 13.9232C19.3433 13.899 19.3433 13.8747 19.3433 13.8498C19.3685 13.8406 19.3943 13.8315 19.42 13.8223C19.5552 13.7662 19.6754 13.6998 19.7993 13.6297C19.8456 13.604 19.8915 13.578 19.9392 13.5516C19.9738 13.5288 20.0089 13.5061 20.0449 13.483C20.0449 13.4587 20.0449 13.4345 20.0449 13.4096C20.0702 13.4004 20.095 13.3912 20.1212 13.3821C20.2591 13.3248 20.3864 13.2614 20.5127 13.1895C20.5127 13.1653 20.5127 13.1411 20.5127 13.1161C20.5379 13.1069 20.5637 13.0978 20.5894 13.0886C20.7246 13.0325 20.8448 12.9661 20.9687 12.896C21.015 12.8703 21.0609 12.8443 21.1086 12.8179C21.1432 12.7951 21.1783 12.7724 21.2143 12.7493C21.2143 12.7251 21.2143 12.7008 21.2143 12.6759C21.2531 12.6627 21.2531 12.6627 21.2924 12.6491C21.4262 12.5919 21.5333 12.5211 21.6498 12.4441C21.8004 12.3457 21.9501 12.2511 22.1119 12.1645C22.1554 12.1396 22.1989 12.1146 22.2434 12.089C22.2434 12.0647 22.2434 12.0405 22.2434 12.0156C22.2686 12.0064 22.2944 11.9972 22.3201 11.9881C22.4553 11.9319 22.5755 11.8655 22.6995 11.7955C22.7458 11.7698 22.7916 11.7438 22.8393 11.7173C22.8739 11.6946 22.909 11.6719 22.945 11.6487C22.945 11.6245 22.945 11.6003 22.945 11.5754C23.0386 11.5387 23.1321 11.502 23.2257 11.4653C23.2257 11.4411 23.2257 11.4169 23.2257 11.392C23.2874 11.3798 23.3492 11.3677 23.4128 11.3553C23.4128 11.3311 23.4128 11.3068 23.4128 11.2819C23.439 11.2727 23.4652 11.2636 23.4923 11.254C23.6181 11.2008 23.7182 11.1363 23.8282 11.064C24.0293 10.933 24.2328 10.805 24.439 10.6788C24.9489 10.3721 24.9489 10.3721 25.4242 10.0346C25.3488 9.97558 25.2684 9.99282 25.1641 9.99282C25.1182 9.99245 25.0719 9.99245 25.0247 9.99208C24.948 9.99208 24.948 9.99208 24.8699 9.99208C24.8165 9.99172 24.7632 9.99172 24.708 9.99135C24.5307 9.99098 24.353 9.99062 24.1752 9.99025C24.0522 9.99025 23.9292 9.98988 23.8062 9.98988C23.5812 9.98952 23.3557 9.98915 23.1303 9.98915C22.7991 9.98878 22.4674 9.98841 22.1358 9.98731C21.8491 9.98621 21.5619 9.98621 21.2747 9.98585C21.1526 9.98585 21.0305 9.98548 20.9084 9.98511C20.7377 9.98438 20.5665 9.98438 20.3957 9.98475C20.32 9.98438 20.32 9.98438 20.2428 9.98365C19.8255 9.98548 19.5977 10.082 19.2848 10.2958ZM32.3938 11.3186C32.3938 15.0835 32.3938 18.8484 32.3938 22.7274C34.9875 22.7428 34.9875 22.7428 37.5812 22.7556C37.6243 22.756 37.6678 22.7564 37.7122 22.7564C40.1726 22.767 42.633 22.767 45.0935 22.7663C45.1739 22.7663 45.1739 22.7663 45.2558 22.7663C46.6286 22.7659 48.0011 22.7652 49.3735 22.7641C49.3866 22.439 49.3964 22.114 49.4025 21.789C49.4057 21.6382 49.4095 21.4871 49.416 21.3363C49.4221 21.1907 49.4254 21.0447 49.4268 20.899C49.4277 20.8433 49.4301 20.7879 49.4329 20.7325C49.4422 20.559 49.4408 20.4005 49.3735 20.2328C49.2074 20.0986 49.0311 20.0127 48.8121 19.9394C48.7813 19.9394 48.7504 19.9394 48.7186 19.9394C48.7186 19.9152 48.7186 19.891 48.7186 19.866C48.6218 19.8091 48.6218 19.8091 48.4964 19.7512C48.067 19.5425 47.6498 19.3234 47.2442 19.0868C47.0403 18.9614 47.0403 18.9614 46.8008 18.9122C46.8008 18.888 46.8008 18.8638 46.8008 18.8388C46.7545 18.819 46.7082 18.7996 46.6605 18.7791C46.5281 18.72 46.4074 18.6551 46.2862 18.5821C46.1534 18.5017 46.0196 18.435 45.8718 18.3719C45.6983 18.2908 45.5355 18.1972 45.3718 18.1048C45.2343 18.0215 45.2343 18.0215 45.0701 17.9951C45.0701 17.9709 45.0701 17.9467 45.0701 17.9217C45.0238 17.9217 44.9775 17.9217 44.9297 17.9217C44.9297 17.8975 44.9297 17.8733 44.9297 17.8484C44.8376 17.7937 44.8376 17.7937 44.7164 17.7383C44.4914 17.629 44.2697 17.5168 44.0499 17.4012C44.0209 17.3858 43.9919 17.3707 43.9619 17.355C43.9339 17.3403 43.9053 17.3253 43.8763 17.3102C43.8492 17.2959 43.8221 17.2816 43.794 17.2669C43.7402 17.2387 43.6869 17.2101 43.6336 17.1811C43.4993 17.1022 43.4993 17.1022 43.3394 17.078C43.3394 17.0538 43.3394 17.0296 43.3394 17.0046C43.293 17.0046 43.2467 17.0046 43.199 17.0046C43.199 16.9804 43.199 16.9562 43.199 16.9313C43.1069 16.8766 43.1069 16.8766 42.9857 16.8212C42.7678 16.7152 42.5526 16.6073 42.3398 16.4955C42.3098 16.4801 42.2799 16.4643 42.249 16.4481C41.9829 16.3084 41.7195 16.1653 41.4566 16.0219C41.052 15.8014 40.6483 15.5817 40.2311 15.377C40.0622 15.2919 39.8999 15.2001 39.7376 15.1073C39.6497 15.0538 39.6497 15.0538 39.5505 15.0604C39.5505 15.0362 39.5505 15.012 39.5505 14.987C39.5093 14.9694 39.4677 14.9522 39.4247 14.9342C39.2306 14.8472 39.0486 14.7471 38.8652 14.6466C38.6552 14.5318 38.4442 14.418 38.2319 14.3061C38.2019 14.2896 38.1715 14.2735 38.1402 14.257C37.9929 14.1715 37.9929 14.1715 37.8198 14.1433C37.8198 14.1191 37.8198 14.0948 37.8198 14.0699C37.7735 14.0699 37.7272 14.0699 37.6795 14.0699C37.6795 14.0457 37.6795 14.0215 37.6795 13.9965C37.578 13.9371 37.578 13.9371 37.4489 13.8773C37.2374 13.775 37.0311 13.6693 36.8272 13.5585C36.7467 13.5134 36.7467 13.5134 36.6504 13.5196C36.6504 13.4954 36.6504 13.4712 36.6504 13.4463C36.4661 13.3612 36.2907 13.2834 36.0891 13.2262C36.0891 13.202 36.0891 13.1777 36.0891 13.1528C36.0428 13.1528 35.9965 13.1528 35.9487 13.1528C35.9487 13.1286 35.9487 13.1044 35.9487 13.0794C35.8566 13.0248 35.8566 13.0248 35.7355 12.9694C35.5175 12.8634 35.3023 12.7555 35.0895 12.6436C35.0595 12.6282 35.0296 12.6124 34.9987 12.5963C34.7326 12.4565 34.4692 12.3135 34.2063 12.17C33.5959 11.8369 33.5959 11.8369 32.9705 11.5214C32.8615 11.4653 32.8615 11.4653 32.7451 11.385C32.6202 11.3006 32.6202 11.3006 32.3938 11.3186ZM28.5114 11.6854C28.5114 11.7096 28.5114 11.7339 28.5114 11.7588C28.4739 11.7724 28.4739 11.7724 28.4356 11.7863C28.2971 11.8432 28.1704 11.9066 28.0436 11.9789C28.0436 12.0031 28.0436 12.0273 28.0436 12.0523C28.0043 12.0658 28.0043 12.0658 27.9646 12.0798C27.8383 12.1333 27.7386 12.1975 27.6287 12.2702C27.4234 12.4037 27.2157 12.535 27.0056 12.6642C26.9781 12.6814 26.9505 12.6986 26.9219 12.7163C26.7694 12.8098 26.6155 12.9008 26.4593 12.9899C26.4111 13.0193 26.3629 13.049 26.3129 13.0794C26.3129 13.1036 26.3129 13.1279 26.3129 13.1528C26.2193 13.1895 26.1258 13.2262 26.0322 13.2628C26.0322 13.2871 26.0322 13.3113 26.0322 13.3362C25.9934 13.3509 25.9934 13.3509 25.9532 13.3659C25.7867 13.4331 25.6426 13.4951 25.5088 13.5996C25.3231 13.7456 25.1164 13.8689 24.9096 13.9965C24.8315 14.0453 24.7539 14.0941 24.6757 14.1433C24.6374 14.1671 24.599 14.1913 24.5593 14.2163C24.4802 14.2662 24.4007 14.3161 24.3216 14.3659C24.1069 14.5013 23.8908 14.6334 23.6654 14.7585C23.6439 14.7735 23.6223 14.7882 23.5999 14.8036C23.5999 14.8278 23.5999 14.852 23.5999 14.877C23.5751 14.8861 23.5498 14.8949 23.5241 14.9045C23.3857 14.9613 23.2589 15.0248 23.1321 15.0971C23.1321 15.1213 23.1321 15.1455 23.1321 15.1704C23.1069 15.1796 23.0816 15.1884 23.0554 15.1979C22.9202 15.2541 22.8 15.3205 22.6761 15.3905C22.6302 15.4162 22.5839 15.4419 22.5367 15.4683C22.5016 15.491 22.4665 15.5138 22.4305 15.5373C22.4305 15.5615 22.4305 15.5857 22.4305 15.6106C22.4057 15.6198 22.3804 15.6286 22.3547 15.6382C22.2163 15.695 22.0895 15.7585 21.9627 15.8307C21.9627 15.855 21.9627 15.8792 21.9627 15.9041C21.9365 15.9133 21.9103 15.9225 21.8837 15.9316C21.7574 15.9852 21.6577 16.0494 21.5478 16.122C21.3425 16.2555 21.1348 16.3869 20.9248 16.516C20.8831 16.5421 20.8831 16.5421 20.841 16.5681C20.6886 16.6616 20.5347 16.7526 20.3784 16.8418C20.3059 16.8861 20.3059 16.8861 20.232 16.9313C20.232 16.9555 20.232 16.9797 20.232 17.0046C20.1385 17.0413 20.0449 17.078 19.9514 17.1147C19.9514 17.1389 19.9514 17.1631 19.9514 17.1881C19.9256 17.198 19.8994 17.2075 19.8723 17.2178C19.7544 17.2655 19.6412 17.3135 19.5304 17.3715C19.5304 17.3957 19.5304 17.4199 19.5304 17.4448C19.5047 17.4537 19.4785 17.4628 19.4518 17.472C19.3218 17.5274 19.2174 17.5949 19.1038 17.6694C19.035 17.7141 19.035 17.7141 18.9653 17.7596C18.9204 17.7886 18.875 17.8179 18.8287 17.8484C18.6229 17.9793 18.4152 18.1088 18.2061 18.2369C18.1505 18.271 18.0948 18.3051 18.0396 18.3388C17.998 18.3642 17.998 18.3642 17.9559 18.3902C17.7173 18.5369 17.4849 18.6888 17.2538 18.8425C17.1448 18.9122 17.1448 18.9122 17.0512 18.9489C17.0512 18.9731 17.0512 18.9973 17.0512 19.0223C17.026 19.0311 17.0007 19.0402 16.9745 19.0498C16.8394 19.1059 16.7191 19.1723 16.5952 19.2424C16.5493 19.2681 16.503 19.2937 16.4558 19.3201C16.4207 19.3429 16.3856 19.3656 16.3496 19.3891C16.3496 19.4133 16.3496 19.4375 16.3496 19.4625C16.3248 19.4713 16.2996 19.4805 16.2738 19.49C16.1354 19.5469 16.0086 19.6103 15.8819 19.6826C15.8819 19.7068 15.8819 19.731 15.8819 19.756C15.8566 19.7648 15.8313 19.7739 15.8051 19.7835C15.67 19.8396 15.5497 19.906 15.4258 19.9761C15.3799 20.0017 15.3336 20.0274 15.2864 20.0538C15.2513 20.0766 15.2162 20.0993 15.1802 20.1228C15.1802 20.147 15.1802 20.1712 15.1802 20.1962C15.1545 20.205 15.1288 20.2138 15.1021 20.2229C14.9683 20.2802 14.8612 20.3506 14.7447 20.4276C14.5941 20.526 14.4449 20.621 14.2826 20.7075C14.2395 20.7325 14.196 20.7574 14.1511 20.7831C14.1511 20.8073 14.1511 20.8315 14.1511 20.8565C14.0576 20.8932 13.964 20.9298 13.8705 20.9665C13.8705 20.9907 13.8705 21.015 13.8705 21.0399C13.8448 21.0498 13.8186 21.0593 13.7914 21.0696C13.6736 21.1173 13.5604 21.1654 13.4495 21.2233C13.4495 21.2475 13.4495 21.2717 13.4495 21.2967C13.3559 21.3334 13.2624 21.3701 13.1688 21.4067C13.1688 21.431 13.1688 21.4552 13.1688 21.4801C13.1445 21.4882 13.1197 21.4966 13.0945 21.5051C12.942 21.5704 12.8101 21.6544 12.6749 21.7391C12.6459 21.7571 12.6169 21.7751 12.5869 21.7938C12.281 21.9845 11.9789 22.1789 11.6776 22.3745C11.3029 22.617 11.3029 22.617 11.1018 22.7252C11.0588 22.7501 11.0153 22.7751 10.9704 22.8007C10.9704 22.825 10.9704 22.8492 10.9704 22.8741C10.9451 22.8829 10.9199 22.8921 10.8937 22.9016C10.7585 22.9578 10.6383 23.0242 10.5143 23.0942C10.4685 23.1199 10.4222 23.1456 10.3749 23.172C10.3398 23.1947 10.3047 23.2175 10.2687 23.241C10.2687 23.2652 10.2687 23.2894 10.2687 23.3143C10.2439 23.3231 10.2187 23.3323 10.193 23.3418C10.0545 23.3987 9.92773 23.4622 9.80097 23.5344C9.80097 23.5586 9.80097 23.5829 9.80097 23.6078C9.77571 23.6166 9.75045 23.6258 9.72426 23.6353C9.58908 23.6914 9.46886 23.7578 9.34491 23.8279C9.29907 23.8536 9.25276 23.8793 9.20551 23.9057C9.17043 23.9284 9.13535 23.9512 9.09933 23.9746C9.09933 23.9989 9.09933 24.0231 9.09933 24.048C9.0736 24.0568 9.04788 24.0656 9.02122 24.0748C8.88744 24.132 8.78032 24.2024 8.66385 24.2795C8.51323 24.3778 8.36401 24.4728 8.2017 24.5594C8.15867 24.5843 8.11516 24.6093 8.07026 24.635C8.07026 24.6592 8.07026 24.6834 8.07026 24.7083C7.92993 24.7634 7.92993 24.7634 7.7896 24.8184C7.7896 24.8426 7.7896 24.8668 7.7896 24.8917C7.76388 24.9016 7.73768 24.9112 7.71055 24.9215C7.59268 24.9691 7.47948 25.0172 7.36862 25.0752C7.36862 25.0994 7.36862 25.1236 7.36862 25.1485C7.34383 25.157 7.31904 25.1658 7.29331 25.1749C7.14924 25.2355 7.02014 25.3099 6.88917 25.387C6.86344 25.4017 6.83725 25.4163 6.81058 25.4317C6.74556 25.4699 6.68242 25.5106 6.6202 25.5521C6.6202 25.5763 6.6202 25.6005 6.6202 25.6254C6.58138 25.6401 6.58138 25.6401 6.54115 25.6551C6.37463 25.7223 6.23056 25.7843 6.09678 25.8888C5.8629 26.0726 5.59675 26.2274 5.33199 26.3837C5.29036 26.4083 5.29036 26.4083 5.2478 26.4336C5.1926 26.4662 5.13741 26.4985 5.08221 26.5304C5.01626 26.5693 4.95264 26.6108 4.88949 26.6526C4.88949 26.6768 4.88949 26.701 4.88949 26.726C4.79594 26.7626 4.70239 26.7993 4.60884 26.836C4.60884 26.8723 4.60884 26.9086 4.60884 26.9461C4.73139 27.0348 4.73139 27.0348 4.88949 27.0561C4.88949 27.0803 4.88949 27.1045 4.88949 27.1295C4.99146 27.2043 4.99146 27.2043 5.11776 27.2806C5.15986 27.3074 5.20242 27.3338 5.24593 27.3613C5.34743 27.4299 5.34743 27.4299 5.4508 27.423C5.4508 27.4472 5.4508 27.4714 5.4508 27.4963C5.57429 27.5844 5.57429 27.5844 5.73146 27.6064C5.73146 27.6306 5.73146 27.6548 5.73146 27.6797C5.8208 27.745 5.8208 27.745 5.93306 27.8103C5.97095 27.8331 6.00837 27.8558 6.04673 27.8793C6.15244 27.942 6.15244 27.942 6.29277 27.9732C6.29277 27.9974 6.29277 28.0216 6.29277 28.0466C6.37603 28.1056 6.37603 28.1056 6.48315 28.1658C6.62629 28.2502 6.76427 28.336 6.89805 28.4296C7.02201 28.5312 7.02201 28.5312 7.13474 28.5235C7.13474 28.5477 7.13474 28.5719 7.13474 28.5969C7.21192 28.6522 7.21192 28.6522 7.31296 28.7091C7.53608 28.8408 7.74985 28.9795 7.96361 29.1203C8.06044 29.1911 8.06044 29.1911 8.16381 29.1838C8.16381 29.208 8.16381 29.2322 8.16381 29.2572C8.26765 29.3272 8.37103 29.3936 8.47955 29.4589C8.50949 29.4773 8.53895 29.4956 8.56936 29.5143C8.71062 29.6005 8.84347 29.6739 9.00578 29.7341C9.00578 29.7583 9.00578 29.7825 9.00578 29.8074C9.09512 29.8727 9.09512 29.8727 9.20738 29.938C9.24527 29.9608 9.28269 29.9835 9.32105 30.007C9.42676 30.0697 9.42676 30.0697 9.56709 30.1009C9.56709 30.1251 9.56709 30.1493 9.56709 30.1743C9.64287 30.2275 9.64287 30.2275 9.7397 30.2796C9.85523 30.3449 9.96609 30.4102 10.076 30.4813C10.1668 30.5485 10.1668 30.5485 10.2687 30.5411C10.2687 30.5653 10.2687 30.5895 10.2687 30.6145C10.3707 30.6893 10.3707 30.6893 10.497 30.7656C10.5391 30.7924 10.5817 30.8188 10.6252 30.8463C10.7267 30.9149 10.7267 30.9149 10.83 30.908C10.83 30.9322 10.83 30.9564 10.83 30.9813C10.9535 31.0694 10.9535 31.0694 11.1107 31.0914C11.1107 31.1156 11.1107 31.1398 11.1107 31.1647C11.2 31.23 11.2 31.23 11.3123 31.2953C11.3502 31.3181 11.3876 31.3408 11.426 31.3643C11.5317 31.427 11.5317 31.427 11.672 31.4582C11.672 31.4824 11.672 31.5066 11.672 31.5316C11.7459 31.5844 11.7459 31.5844 11.8446 31.6394C12.0322 31.7502 12.2127 31.8658 12.3914 31.9854C12.6632 32.1673 12.9382 32.3456 13.2156 32.5221C13.2778 32.5628 13.2778 32.5628 13.3414 32.6046C13.4397 32.6761 13.4397 32.6761 13.5431 32.6688C13.5431 32.693 13.5431 32.7172 13.5431 32.7422C13.6469 32.8122 13.7503 32.8786 13.8588 32.9439C13.8887 32.9623 13.9182 32.9806 13.9486 32.9993C14.0899 33.0855 14.2227 33.1589 14.385 33.2191C14.385 33.2433 14.385 33.2675 14.385 33.2924C14.4575 33.3431 14.4575 33.3431 14.552 33.3933C14.6778 33.4648 14.7999 33.5375 14.9173 33.6178C15.0549 33.7114 15.1942 33.8027 15.335 33.893C15.3748 33.9183 15.4141 33.9436 15.4548 33.9696C15.5465 34.0331 15.5465 34.0331 15.648 34.0261C15.648 34.0503 15.648 34.0745 15.648 34.0995C15.7499 34.1743 15.7499 34.1743 15.8762 34.2506C15.9183 34.2774 15.9609 34.3038 16.0044 34.3313C16.1059 34.3999 16.1059 34.3999 16.2093 34.393C16.2093 34.4172 16.2093 34.4414 16.2093 34.4663C16.3328 34.5544 16.3328 34.5544 16.4899 34.5764C16.4899 34.6006 16.4899 34.6248 16.4899 34.6497C16.5793 34.715 16.5793 34.715 16.6915 34.7803C16.7294 34.8031 16.7669 34.8258 16.8052 34.8493C16.9109 34.912 16.9109 34.912 17.0512 34.9432C17.0512 34.9674 17.0512 34.9916 17.0512 35.0166C17.1252 35.0694 17.1252 35.0694 17.2239 35.1244C17.4086 35.2334 17.5864 35.3478 17.7618 35.466C17.9826 35.6138 18.2066 35.758 18.4344 35.8992C18.4615 35.9165 18.4887 35.9333 18.5167 35.9509C18.6463 36.0305 18.7707 36.1021 18.9223 36.1538C18.9223 36.178 18.9223 36.2022 18.9223 36.2272C19.0229 36.2939 19.1244 36.3574 19.2296 36.4198C19.2899 36.4564 19.3508 36.4928 19.4111 36.5294C19.4401 36.5471 19.4691 36.5647 19.499 36.5826C19.6132 36.6527 19.7222 36.7268 19.8307 36.802C19.9462 36.8779 20.0678 36.9469 20.1904 37.0162C20.2905 37.0779 20.3761 37.1468 20.4659 37.2176C20.5449 37.2705 20.6249 37.3222 20.7059 37.3736C20.7466 37.3992 20.7872 37.4253 20.8289 37.4521C20.9248 37.5181 20.9248 37.5181 21.0272 37.5111C21.0272 37.5353 21.0272 37.5595 21.0272 37.5845C21.1292 37.6593 21.1292 37.6593 21.2555 37.7356C21.2976 37.7624 21.3401 37.7888 21.3836 37.8163C21.4851 37.8849 21.4851 37.8849 21.5885 37.878C21.5885 37.9022 21.5885 37.9264 21.5885 37.9513C21.712 38.0394 21.712 38.0394 21.8692 38.0614C21.8692 38.0856 21.8692 38.1098 21.8692 38.1347C21.9585 38.2 21.9585 38.2 22.0708 38.2653C22.1087 38.2881 22.1461 38.3108 22.1844 38.3343C22.2902 38.397 22.2902 38.397 22.4305 38.4282C22.4305 38.4524 22.4305 38.4766 22.4305 38.5016C22.5109 38.5599 22.5109 38.5599 22.612 38.616C22.6625 38.6458 22.6625 38.6458 22.714 38.6762C22.8 38.7283 22.8 38.7283 22.8982 38.7217C22.8982 38.7459 22.8982 38.7701 22.8982 38.7951C23.0002 38.8699 23.0002 38.8699 23.1265 38.9462C23.1686 38.973 23.2112 38.9994 23.2547 39.0269C23.3562 39.0955 23.3562 39.0955 23.4596 39.0885C23.4596 39.1127 23.4596 39.137 23.4596 39.1619C23.5634 39.232 23.6668 39.2984 23.7753 39.3637C23.8052 39.382 23.8347 39.4004 23.8651 39.4191C24.0064 39.5053 24.1392 39.5786 24.3015 39.6388C24.3015 39.663 24.3015 39.6872 24.3015 39.7122C24.3787 39.7364 24.4559 39.7606 24.5354 39.7855C24.5354 39.8097 24.5354 39.834 24.5354 39.8589C24.6187 39.918 24.6187 39.918 24.7258 39.9781C24.8656 40.061 25.0027 40.1447 25.1346 40.2349C25.3255 40.3839 25.3255 40.3839 25.5645 40.4459C25.5645 40.4701 25.5645 40.4943 25.5645 40.5192C25.6431 40.575 25.7245 40.6278 25.8072 40.6795C25.8522 40.7078 25.8975 40.736 25.9438 40.7654C26.0107 40.8068 26.0107 40.8068 26.079 40.8494C26.1426 40.8908 26.1426 40.8908 26.2072 40.9334C26.3035 41.0035 26.3035 41.0035 26.4064 40.9961C26.4064 41.0203 26.4064 41.0445 26.4064 41.0695C26.5103 41.1395 26.6137 41.2059 26.7222 41.2712C26.7521 41.2896 26.7816 41.3079 26.812 41.3266C26.9533 41.4128 27.0861 41.4862 27.2484 41.5464C27.2484 41.5706 27.2484 41.5948 27.2484 41.6197C27.3378 41.685 27.3378 41.685 27.45 41.7503C27.4879 41.7731 27.5253 41.7958 27.5637 41.8193C27.6694 41.882 27.6694 41.882 27.8097 41.9132C27.8097 41.9374 27.8097 41.9616 27.8097 41.9866C27.8902 42.0449 27.8902 42.0449 27.9912 42.101C28.0417 42.1308 28.0417 42.1308 28.0932 42.1612C28.1793 42.2133 28.1793 42.2133 28.2775 42.2067C28.2775 42.2309 28.2775 42.2551 28.2775 42.2801C28.3519 42.3329 28.4295 42.3828 28.5086 42.4312C28.5516 42.458 28.5942 42.4844 28.6386 42.5119C28.7293 42.5772 28.7293 42.5772 28.792 42.5735C28.792 32.3441 28.792 22.1148 28.792 11.5754C28.6872 11.5754 28.5951 11.6414 28.5114 11.6854ZM3.62654 29.9542C3.62654 34.6512 3.62654 39.3483 3.62654 44.1876C10.8661 44.1876 18.1056 44.1876 25.5645 44.1876C25.3863 44.0479 25.2095 43.9184 25.0177 43.7907C24.9905 43.7724 24.9634 43.754 24.9358 43.735C24.8011 43.6337 24.8011 43.6337 24.629 43.6007C24.629 43.5765 24.629 43.5523 24.629 43.5273C24.5256 43.4569 24.4217 43.3909 24.3132 43.3256C24.2838 43.3072 24.2538 43.2889 24.2234 43.2702C24.0821 43.184 23.9493 43.1106 23.787 43.0504C23.787 43.0262 23.787 43.002 23.787 42.9771C23.7037 42.918 23.7037 42.918 23.5971 42.8578C23.4539 42.7735 23.316 42.6873 23.1822 42.5941C23.0578 42.4921 23.0578 42.4921 22.945 42.5002C22.945 42.476 22.945 42.4517 22.945 42.4268C22.8557 42.3615 22.8557 42.3615 22.7434 42.2962C22.6873 42.2617 22.6873 42.2617 22.6298 42.2272C22.524 42.1641 22.524 42.1641 22.3837 42.1333C22.3837 42.1091 22.3837 42.0849 22.3837 42.06C22.3037 42.0016 22.3037 42.0016 22.2027 41.9451C22.1522 41.9154 22.1522 41.9154 22.1007 41.8853C22.0147 41.8333 22.0147 41.8332 21.916 41.8399C21.916 41.8156 21.916 41.7914 21.916 41.7665C21.8144 41.6913 21.8144 41.6913 21.6882 41.615C21.6456 41.5886 21.6035 41.5618 21.56 41.5346C21.4585 41.466 21.4585 41.466 21.3546 41.473C21.3546 41.4488 21.3546 41.4246 21.3546 41.3996C21.2316 41.3116 21.2316 41.3116 21.074 41.2896C21.074 41.2654 21.074 41.2412 21.074 41.2162C20.9968 41.1605 20.9968 41.1605 20.8986 41.1062C20.8499 41.0776 20.8499 41.0776 20.7999 41.0489C20.7068 40.9998 20.6142 40.9598 20.5127 40.9227C20.5127 40.8985 20.5127 40.8743 20.5127 40.8494C20.4495 40.805 20.4495 40.805 20.3635 40.7599C20.1478 40.6373 19.9462 40.5038 19.7441 40.3677C19.5238 40.1938 19.5238 40.1938 19.2497 40.1157C19.2497 40.0915 19.2497 40.0673 19.2497 40.0423C19.1267 39.9543 19.1267 39.9543 18.9691 39.9323C18.9691 39.9081 18.9691 39.8838 18.9691 39.8589C18.8797 39.7936 18.8797 39.7936 18.7675 39.7283C18.7113 39.6938 18.7113 39.6938 18.6538 39.6593C18.5481 39.5962 18.5481 39.5962 18.4078 39.5654C18.4078 39.5412 18.4078 39.517 18.4078 39.4921C18.3245 39.433 18.3245 39.433 18.2178 39.3728C18.0747 39.2885 17.9367 39.2023 17.8029 39.1091C17.6785 39.0071 17.6785 39.0071 17.5658 39.0152C17.5658 38.991 17.5658 38.9667 17.5658 38.9418C17.4764 38.8765 17.4764 38.8765 17.3642 38.8112C17.3268 38.7881 17.2893 38.7653 17.2505 38.7422C17.1448 38.6791 17.1448 38.6791 17.0045 38.6483C17.0045 38.6241 17.0045 38.5999 17.0045 38.575C16.9245 38.5166 16.9245 38.5166 16.8235 38.4601C16.7898 38.4403 16.7561 38.4205 16.7215 38.4003C16.6354 38.3483 16.6354 38.3482 16.5367 38.3549C16.5367 38.3306 16.5367 38.3064 16.5367 38.2815C16.4333 38.211 16.3295 38.145 16.221 38.0797C16.1915 38.0614 16.1616 38.043 16.1312 38.0243C15.9899 37.9381 15.8571 37.8647 15.6947 37.8046C15.6947 37.7804 15.6947 37.7562 15.6947 37.7312C15.6176 37.6755 15.6176 37.6755 15.5193 37.6212C15.4871 37.6021 15.4543 37.5834 15.4206 37.5639C15.3276 37.5148 15.2349 37.4748 15.1334 37.4377C15.1334 37.4135 15.1334 37.3893 15.1334 37.3644C15.0577 37.3112 15.0577 37.3112 14.9608 37.2587C14.8458 37.1934 14.7349 37.1281 14.625 37.057C14.5338 36.9902 14.5338 36.9902 14.4318 36.9975C14.4318 36.9733 14.4318 36.9491 14.4318 36.9242C14.3303 36.849 14.3303 36.849 14.204 36.7727C14.1614 36.7462 14.1193 36.7195 14.0758 36.6923C13.9743 36.6237 13.9743 36.6237 13.8705 36.6307C13.8705 36.6065 13.8705 36.5823 13.8705 36.5573C13.7475 36.4693 13.7475 36.4693 13.5898 36.4473C13.5898 36.4231 13.5898 36.3989 13.5898 36.3739C13.5005 36.3086 13.5005 36.3086 13.3882 36.2433C13.3508 36.2202 13.3134 36.1975 13.2746 36.1743C13.1688 36.1112 13.1688 36.1112 13.0285 36.0804C13.0285 36.0562 13.0285 36.032 13.0285 36.0071C12.9453 35.948 12.9453 35.948 12.8386 35.8878C12.6955 35.8035 12.5575 35.7173 12.4237 35.6241C12.2993 35.5221 12.2993 35.5221 12.1865 35.5302C12.1865 35.506 12.1865 35.4817 12.1865 35.4568C12.1248 35.4447 12.0631 35.4326 11.9994 35.4201C11.9994 35.3959 11.9994 35.3717 11.9994 35.3467C11.8367 35.2132 11.8367 35.2132 11.6252 35.1633C11.6252 35.1391 11.6252 35.1149 11.6252 35.09C11.5452 35.0316 11.5452 35.0316 11.4442 34.9751C11.4105 34.9553 11.3769 34.9355 11.3422 34.9153C11.2562 34.8632 11.2562 34.8632 11.1575 34.8699C11.1575 34.8456 11.1575 34.8214 11.1575 34.7965C11.0541 34.7261 10.9503 34.66 10.8417 34.5947C10.8123 34.5764 10.7823 34.558 10.7519 34.5393C10.6107 34.4531 10.4778 34.3798 10.3155 34.3196C10.3155 34.2954 10.3155 34.2712 10.3155 34.2462C10.2383 34.1905 10.2383 34.1905 10.1401 34.1362C10.1078 34.1171 10.0751 34.0984 10.0414 34.0789C9.94832 34.0298 9.8557 33.9898 9.7542 33.9527C9.7542 33.9285 9.7542 33.9043 9.7542 33.8794C9.67842 33.8262 9.67842 33.8262 9.58159 33.7737C9.46652 33.7084 9.35566 33.6431 9.24574 33.572C9.15453 33.5052 9.15453 33.5052 9.05256 33.5125C9.05256 33.4883 9.05256 33.4641 9.05256 33.4392C8.95105 33.364 8.95105 33.364 8.82476 33.2877C8.78219 33.2612 8.74009 33.2345 8.69659 33.2073C8.59509 33.1387 8.59509 33.1387 8.49124 33.1457C8.49124 33.1215 8.49124 33.0973 8.49124 33.0723C8.36822 32.9843 8.36822 32.9843 8.21059 32.9623C8.21059 32.9381 8.21059 32.9138 8.21059 32.8889C8.12125 32.8236 8.12125 32.8236 8.00898 32.7583C7.97156 32.7352 7.93414 32.7125 7.89532 32.6893C7.7896 32.6262 7.7896 32.6262 7.64928 32.5954C7.64928 32.5712 7.64928 32.547 7.64928 32.5221C7.56601 32.463 7.56601 32.463 7.45937 32.4028C7.31623 32.3185 7.17824 32.2323 7.04446 32.1391C6.92004 32.0371 6.92004 32.0371 6.80731 32.0452C6.80731 32.021 6.80731 31.9967 6.80731 31.9718C6.71469 31.9535 6.71469 31.9535 6.6202 31.9351C6.6202 31.9109 6.6202 31.8867 6.6202 31.8617C6.51683 31.7913 6.41299 31.7253 6.30447 31.66C6.275 31.6416 6.24506 31.6233 6.21466 31.6046C6.07339 31.5184 5.94055 31.445 5.77824 31.3849C5.77824 31.3606 5.77824 31.3364 5.77824 31.3115C5.70106 31.2873 5.62388 31.2631 5.54436 31.2381C5.54436 31.2139 5.54436 31.1897 5.54436 31.1647C5.45642 31.1083 5.36801 31.0558 5.27539 31.0041C5.10139 30.9058 4.94609 30.8078 4.79594 30.6879C4.73466 30.6501 4.67245 30.6134 4.60884 30.5778C4.47085 30.4997 4.35484 30.4153 4.23463 30.321C4.15558 30.2682 4.07606 30.2161 3.99514 30.1651C3.95444 30.1391 3.91375 30.113 3.87165 30.0866C3.77576 30.0202 3.77576 30.0202 3.67332 30.0275C3.65788 30.0033 3.64244 29.9791 3.62654 29.9542Z"/></svg>