<svg xmlns="http://www.w3.org/2000/svg" width="289" height="60" fill="none" viewBox="0 0 289 60"><path fill="#E51E56" d="M44.2604 6.5037C44.309 6.5026 44.3577 6.50114 44.4077 6.50004C44.8259 6.49783 45.1014 6.59725 45.4443 6.77663C45.4443 6.80085 45.4443 6.82506 45.4443 6.85C45.4906 6.86211 45.5369 6.87421 45.5846 6.88669C45.5846 6.9109 45.5846 6.93511 45.5846 6.96006C45.6155 6.96006 45.6463 6.96006 45.6782 6.96006C45.7455 7.03489 45.7455 7.03489 45.8185 7.13431C45.8428 7.16659 45.8667 7.19887 45.8919 7.23225C45.9139 7.26343 45.9359 7.29462 45.9588 7.3269C45.9757 7.34928 45.992 7.37129 46.0089 7.3944C46.0935 7.54847 46.0697 7.71869 46.0701 7.88376C46.0711 7.92082 46.0725 7.9575 46.0734 7.99565C46.0748 8.21612 46.0393 8.37607 45.9125 8.57306C45.8447 8.68018 45.8077 8.79133 45.7689 8.90652C45.7128 9.0672 45.6524 9.22237 45.5743 9.37681C45.5261 9.47953 45.4873 9.58371 45.4475 9.68826C45.3793 9.86435 45.3007 10.0331 45.2109 10.2026C45.136 10.3548 45.0799 10.5107 45.0205 10.6666C44.9765 10.7752 44.9765 10.7752 44.9064 10.9014C44.8385 11.0283 44.7922 11.1512 44.7459 11.284C44.6935 11.4322 44.6402 11.572 44.5555 11.7107C44.4465 11.89 44.3857 12.0779 44.3188 12.269C44.2767 12.3842 44.2272 12.4939 44.171 12.605C44.1229 12.7077 44.084 12.8119 44.0443 12.9165C43.976 13.0926 43.8974 13.2613 43.8076 13.4308C43.7327 13.583 43.6766 13.7389 43.6172 13.8948C43.5732 14.0034 43.5732 14.0034 43.5031 14.1296C43.4352 14.2558 43.3889 14.378 43.3426 14.51C43.2771 14.6949 43.2004 14.8695 43.1059 15.0464C43.0306 15.1968 42.9745 15.3519 42.9156 15.5064C42.8716 15.6172 42.8215 15.7243 42.7678 15.8321C42.72 15.936 42.6808 16.0412 42.641 16.1473C42.575 16.3175 42.5007 16.4774 42.4006 16.6374C42.3416 16.747 42.3047 16.86 42.2635 16.9748C42.227 17.0622 42.1901 17.1491 42.1526 17.236C42.0755 17.4151 42.0025 17.5941 41.9333 17.7749C41.8673 17.9451 41.7901 18.108 41.7027 18.2724C41.626 18.429 41.5675 18.5897 41.5071 18.7507C41.4683 18.8457 41.4683 18.8457 41.4215 18.8824C41.3893 18.9664 41.3893 18.9664 41.4215 19.0658C41.5226 19.1488 41.6405 19.2104 41.7607 19.2742C41.7925 19.2922 41.8247 19.3102 41.8575 19.3285C42.0044 19.4096 42.148 19.4815 42.3103 19.5427C42.3103 19.567 42.3103 19.5912 42.3103 19.6161C42.3355 19.6194 42.3613 19.6231 42.387 19.6264C42.5301 19.6605 42.6405 19.7159 42.7663 19.779C42.8127 19.8014 42.8585 19.8241 42.9062 19.8476C42.9586 19.878 42.9586 19.878 43.0119 19.9096C43.0119 19.9338 43.0119 19.958 43.0119 19.983C43.0582 19.983 43.1045 19.983 43.1523 19.983C43.1523 20.0072 43.1523 20.0314 43.1523 20.0563C43.1836 20.0644 43.2149 20.0728 43.2467 20.0813C43.4278 20.144 43.5831 20.2276 43.7458 20.3153C43.9577 20.432 43.9577 20.432 44.1813 20.5332C44.1813 20.5574 44.1813 20.5816 44.1813 20.6066C44.208 20.6106 44.2351 20.615 44.2627 20.6194C44.3787 20.6455 44.4653 20.6825 44.5672 20.7328C44.6168 20.7563 44.6168 20.7563 44.6673 20.7805C44.7047 20.8032 44.7047 20.8032 44.7426 20.8267C44.7426 20.8509 44.7426 20.8751 44.7426 20.9001C44.7889 20.9001 44.8353 20.9001 44.883 20.9001C44.883 20.9243 44.883 20.9485 44.883 20.9734C44.9143 20.9815 44.9456 20.9899 44.9775 20.9984C45.1585 21.0611 45.3138 21.1447 45.4766 21.2324C45.6884 21.3491 45.6884 21.3491 45.912 21.4503C45.912 21.4745 45.912 21.4987 45.912 21.5237C45.9438 21.5321 45.9761 21.5409 46.0089 21.5501C46.1754 21.607 46.3209 21.6822 46.4705 21.7621C46.5164 21.786 46.5164 21.786 46.5627 21.8106C46.8041 21.9386 47.0417 22.0707 47.2765 22.206C47.4547 22.3076 47.6371 22.3938 47.8299 22.4775C47.8299 22.5017 47.8299 22.5259 47.8299 22.5508C47.8551 22.5542 47.8808 22.5578 47.9066 22.5611C48.0497 22.5952 48.1601 22.6506 48.2859 22.7137C48.3322 22.7361 48.3781 22.7588 48.4258 22.7823C48.4604 22.8025 48.4955 22.823 48.5315 22.8443C48.5315 22.8685 48.5315 22.8927 48.5315 22.9177C48.5722 22.9239 48.5722 22.9239 48.6138 22.9302C48.7275 22.9562 48.8009 22.9914 48.8973 23.045C48.93 23.0626 48.9628 23.0806 48.9964 23.0993C49.0301 23.118 49.0643 23.1367 49.0989 23.1561C49.1662 23.1932 49.2336 23.2302 49.301 23.2673C49.3304 23.2838 49.3604 23.3003 49.3908 23.3172C49.4679 23.3601 49.4679 23.3601 49.5606 23.3946C49.5606 23.4188 49.5606 23.443 49.5606 23.468C49.5858 23.4713 49.6115 23.4749 49.6373 23.4782C49.7804 23.5123 49.8908 23.5677 50.0166 23.6308C50.0629 23.6532 50.1088 23.676 50.1565 23.6994C50.1911 23.7196 50.2262 23.7402 50.2622 23.7614C50.2622 23.7856 50.2622 23.8099 50.2622 23.8348C50.2935 23.8432 50.3249 23.8513 50.3572 23.8601C50.5354 23.9217 50.6869 24.0032 50.8469 24.0894C50.9077 24.1217 50.969 24.1539 51.0298 24.1866C51.0728 24.2093 51.0728 24.2093 51.1163 24.2328C51.1879 24.2699 51.2623 24.3036 51.3366 24.337C51.368 24.3528 51.3993 24.3686 51.4316 24.3851C51.4316 24.4093 51.4316 24.4335 51.4316 24.4584C51.4793 24.472 51.4793 24.472 51.5284 24.4859C51.6921 24.5406 51.8395 24.6077 51.9929 24.6785C51.9929 24.7027 51.9929 24.727 51.9929 24.7519C52.0238 24.7585 52.0547 24.7655 52.0865 24.7724C52.4611 24.9133 52.7647 25.1749 52.9102 25.4793C53.0056 25.7138 52.9953 25.9489 52.9944 26.1929C52.9944 26.2449 52.9949 26.2974 52.9953 26.3495C52.9963 26.4907 52.9958 26.632 52.9958 26.7732C52.9958 26.8913 52.9958 27.0094 52.9963 27.1276C52.9967 27.4064 52.9967 27.6852 52.9963 27.964C52.9958 28.2508 52.9963 28.5381 52.9977 28.8249C52.9986 29.0722 52.9991 29.3191 52.9986 29.5663C52.9986 29.7134 52.9986 29.8609 52.9995 30.008C53 30.1467 53 30.285 52.9991 30.4236C52.9986 30.4981 52.9995 30.573 53 30.6474C52.9963 31.0245 52.8831 31.2711 52.601 31.5752C52.5729 31.606 52.5453 31.6372 52.5163 31.6691C52.2071 31.9394 51.7927 32.0741 51.3381 32.1254C51.0817 32.1357 50.8254 32.135 50.5681 32.1342C50.49 32.1342 50.4114 32.1342 50.3328 32.1342C50.1177 32.1346 49.903 32.1342 49.6878 32.1339C49.4553 32.1335 49.2233 32.1335 48.9913 32.1339C48.589 32.1339 48.1872 32.1335 47.7854 32.1331C47.204 32.1324 46.623 32.1324 46.0416 32.132C45.0986 32.132 44.1556 32.1317 43.2126 32.1309C42.2967 32.1302 41.3804 32.1298 40.4645 32.1295C40.4084 32.1295 40.3518 32.1295 40.2933 32.1295C40.0103 32.1291 39.7268 32.1291 39.4434 32.1291C37.0938 32.1284 34.7438 32.1269 32.3938 32.1254C32.3938 32.1683 32.3942 32.2113 32.3942 32.2553C32.397 34.1449 32.4003 36.0345 32.4017 37.9241C32.4017 37.967 32.4017 37.967 32.4017 38.0107C32.4027 38.6325 32.4031 39.2539 32.4036 39.8757C32.4036 40.1806 32.4041 40.4854 32.4041 40.7902C32.4041 40.8203 32.4041 40.8508 32.4041 40.882C32.405 41.8655 32.4064 42.849 32.4083 43.8321C32.4101 44.8427 32.4111 45.8534 32.4115 46.8637C32.4115 47.0064 32.4115 47.1491 32.4115 47.2918C32.4115 47.334 32.4115 47.334 32.4115 47.3769C32.412 47.8292 32.413 48.2815 32.4139 48.7338C32.4148 49.1884 32.4153 49.6429 32.4153 50.0974C32.4148 50.3439 32.4153 50.5901 32.4162 50.8366C32.4172 51.0618 32.4172 51.2874 32.4167 51.513C32.4162 51.5945 32.4167 51.6763 32.4172 51.7577C32.4181 51.8685 32.4176 51.9797 32.4167 52.0905C32.4176 52.122 32.4181 52.1539 32.4186 52.1866C32.413 52.5894 32.1473 52.8902 31.8002 53.1734C31.448 53.4283 31.0845 53.4977 30.6144 53.494C30.5634 53.4944 30.5129 53.4947 30.4605 53.4947C30.2907 53.4955 30.1205 53.4947 29.9507 53.4944C29.8272 53.4947 29.7042 53.4947 29.5811 53.4951C29.3136 53.4958 29.0455 53.4958 28.778 53.4955C28.3799 53.4951 27.9819 53.4955 27.5833 53.4958C26.8723 53.4969 26.1613 53.4969 25.4503 53.4966C24.8278 53.4962 24.2056 53.4962 23.5835 53.4966C23.4998 53.4966 23.4165 53.4966 23.3328 53.4966C23.207 53.4969 23.0811 53.4969 22.9558 53.4969C21.7864 53.4973 20.617 53.4977 19.4476 53.4973C19.3812 53.4969 19.3812 53.4969 19.3138 53.4969C18.956 53.4969 18.5977 53.4969 18.2398 53.4966C16.8436 53.4962 15.4468 53.4966 14.0506 53.4973C12.4812 53.4988 10.9124 53.4991 9.3435 53.4988C9.17605 53.4988 9.00905 53.4988 8.8416 53.4988C8.80043 53.4988 8.75927 53.4988 8.7167 53.4988C8.09505 53.4984 7.47293 53.4988 6.85128 53.4995C6.14402 53.5002 5.43677 53.5002 4.72999 53.4991C4.3338 53.4988 3.93807 53.4988 3.54234 53.4995C3.27806 53.5002 3.01378 53.4999 2.74949 53.4991C2.59887 53.4988 2.44826 53.4988 2.29764 53.4991C2.13532 53.4999 1.97254 53.4995 1.81023 53.4984C1.76392 53.4991 1.71714 53.4995 1.66943 53.4999C1.18904 53.4951 0.835417 53.33 0.491613 53.0758C0.079049 52.7317 0.00374037 52.3329 0.00701469 51.8755C0.00701469 51.8296 0.00654647 51.7841 0.00654647 51.7372C0.00607871 51.611 0.00607871 51.4848 0.00654647 51.3586C0.00701423 51.221 0.00654601 51.0838 0.00607825 50.9463C0.00561049 50.7056 0.00514513 50.465 0.00561289 50.2243C0.00608065 49.8663 0.00561243 49.5082 0.00514467 49.1502C0.00420915 48.5108 0.00420824 47.8714 0.00420824 47.2324C0.004676 46.6729 0.004676 46.1135 0.00420824 45.5537C0.00420824 45.4789 0.00420824 45.4036 0.00420824 45.3288C0.00420824 45.2158 0.00420824 45.1025 0.00420824 44.9895C0.00374048 43.9385 0.00327226 42.8871 0.00374002 41.8361C0.00374002 41.7965 0.00374002 41.7569 0.00374002 41.7162C0.00374002 41.3944 0.00374048 41.0723 0.00420824 40.7506C0.004676 39.4953 0.00420733 38.2396 0.00327181 36.9839C0.00186853 35.5737 0.0014018 34.1632 0.0014018 32.7527C0.0014018 32.6023 0.00187001 32.4519 0.00187001 32.3019C0.00187001 32.2648 0.00187001 32.2278 0.00187001 32.1896C0.00187001 31.6306 0.00140134 31.0711 0.000933578 30.5121C-1.94137e-06 29.8763 -1.94137e-06 29.2406 0.000933578 28.6048C0.00140134 28.249 0.00140088 27.8932 0.000465362 27.5373C-2.39817e-06 27.2996 -1.94137e-06 27.0623 0.000933578 26.8246C0.00140134 26.6892 0.00140134 26.5538 0.000933578 26.4181C-1.94137e-06 26.2725 0.000466275 26.1265 0.0014018 25.9805C0.000934035 25.9386 0.00046776 25.8964 0 25.8532C0.00327432 25.5997 0.0542587 25.4133 0.211894 25.1921C0.229669 25.1668 0.247445 25.1411 0.265687 25.1151C0.308721 25.0545 0.353625 24.9948 0.398998 24.9353C0.42987 24.9353 0.460742 24.9353 0.49255 24.9353C0.507986 24.899 0.523422 24.8627 0.539326 24.8253C0.570198 24.8253 0.60107 24.8253 0.632878 24.8253C0.632878 24.8011 0.632878 24.7768 0.632878 24.7519C0.705848 24.7057 0.781157 24.6628 0.85787 24.6213C1.04264 24.5186 1.22179 24.4133 1.39579 24.3C1.60114 24.1672 1.80742 24.0355 2.01604 23.906C2.04411 23.888 2.07264 23.87 2.10211 23.8513C2.30605 23.7247 2.30605 23.7247 2.41037 23.7247C2.41037 23.7005 2.41037 23.6763 2.41037 23.6514C2.47866 23.6041 2.47866 23.6041 2.56847 23.5549C2.59747 23.5388 2.62694 23.5222 2.65734 23.5054C2.7378 23.468 2.7378 23.468 2.83135 23.468C2.83135 23.4437 2.83135 23.4195 2.83135 23.3946C2.99319 23.2845 2.99319 23.2845 3.11201 23.2845C3.11201 23.2603 3.11201 23.2361 3.11201 23.2112C3.17375 23.1991 3.23549 23.187 3.29911 23.1745C3.29911 23.1503 3.29911 23.1261 3.29911 23.1011C3.37629 23.0468 3.37629 23.0468 3.48341 22.9841C3.54094 22.95 3.54094 22.95 3.59988 22.9151C3.63964 22.8916 3.6794 22.8682 3.72009 22.8443C3.79166 22.8007 3.86276 22.7574 3.93386 22.7137C4.00262 22.6715 4.07185 22.6294 4.14108 22.5875C4.17616 22.5659 4.21124 22.5446 4.24773 22.5222C4.28094 22.5021 4.31415 22.4822 4.34876 22.4613C4.3787 22.4434 4.40864 22.425 4.43904 22.4063C4.51528 22.3674 4.51528 22.3674 4.60884 22.3674C4.60884 22.3432 4.60884 22.319 4.60884 22.2941C4.68742 22.2387 4.68742 22.2387 4.79033 22.1792C4.82401 22.1594 4.85768 22.1396 4.8923 22.1194C4.98304 22.074 4.98304 22.074 5.0766 22.074C5.0766 22.0497 5.0766 22.0255 5.0766 22.0006C5.1622 21.9412 5.1622 21.9412 5.27539 21.8744C5.31235 21.8524 5.3493 21.8307 5.38719 21.808C5.44192 21.7761 5.44192 21.7761 5.49758 21.7438C5.5481 21.7122 5.5481 21.7122 5.59908 21.6803C5.68468 21.6337 5.68468 21.6337 5.77824 21.6337C5.77824 21.6095 5.77824 21.5853 5.77824 21.5604C5.85682 21.505 5.85682 21.505 5.95973 21.4456C5.99341 21.4257 6.02708 21.4059 6.0617 21.3858C6.15244 21.3403 6.15244 21.3403 6.246 21.3403C6.246 21.3161 6.246 21.2918 6.246 21.2669C6.32177 21.2177 6.40036 21.1719 6.47988 21.1268C6.72311 20.9881 6.95793 20.8428 7.1904 20.6935C7.45001 20.5273 7.71055 20.3626 7.97671 20.2031C8.02863 20.1711 8.02863 20.1711 8.08195 20.1389C8.13247 20.108 8.13247 20.108 8.18439 20.0769C8.21433 20.0589 8.24427 20.0405 8.27467 20.0218C8.35092 19.983 8.35092 19.983 8.44447 19.983C8.44447 19.9587 8.44447 19.9345 8.44447 19.9096C8.60631 19.7995 8.60631 19.7995 8.72512 19.7995C8.72512 19.7753 8.72512 19.7511 8.72512 19.7262C8.78687 19.7141 8.84861 19.702 8.91223 19.6895C8.91223 19.6653 8.91223 19.6411 8.91223 19.6161C9.07407 19.5061 9.07407 19.5061 9.19288 19.5061C9.19288 19.4818 9.19288 19.4576 9.19288 19.4327C9.26118 19.3854 9.26118 19.3854 9.35099 19.3362C9.37999 19.3201 9.40946 19.3036 9.43986 19.2867C9.52032 19.2493 9.52032 19.2493 9.61387 19.2493C9.61387 19.2251 9.61387 19.2008 9.61387 19.1759C9.69245 19.1205 9.69245 19.1205 9.79536 19.0611C9.82904 19.0413 9.86272 19.0215 9.89733 19.0013C9.98808 18.9558 9.98808 18.9558 10.0816 18.9558C10.0816 18.9316 10.0816 18.9074 10.0816 18.8824C10.1593 18.8318 10.2397 18.7841 10.3216 18.7379C10.5817 18.5893 10.8352 18.4345 11.0854 18.2753C11.2875 18.1487 11.2875 18.1487 11.3914 18.1487C11.3914 18.1245 11.3914 18.1003 11.3914 18.0754C11.4699 18.02 11.4699 18.02 11.5728 17.9606C11.6065 17.9407 11.6402 17.9209 11.6748 17.9008C11.7656 17.8553 11.7656 17.8553 11.8591 17.8553C11.8591 17.8311 11.8591 17.8068 11.8591 17.7819C11.9363 17.7276 11.9363 17.7276 12.0434 17.6649C12.0818 17.6421 12.1201 17.6194 12.1594 17.5963C12.1992 17.5728 12.2389 17.5493 12.2801 17.5251C12.3545 17.48 12.4284 17.4349 12.5023 17.3897C12.5369 17.3688 12.5715 17.3479 12.6071 17.3263C12.6852 17.2779 12.7624 17.2287 12.8386 17.1788C12.935 17.1216 12.935 17.1216 13.0285 17.1216C13.0285 17.0974 13.0285 17.0732 13.0285 17.0482C13.1015 17.002 13.1768 16.9591 13.2535 16.9176C13.4383 16.8149 13.6174 16.7096 13.7914 16.5963C13.9968 16.4635 14.2031 16.3318 14.4117 16.2023C14.4397 16.1843 14.4683 16.1663 14.4977 16.1476C14.7017 16.0211 14.7017 16.0211 14.806 16.0211C14.806 15.9968 14.806 15.9726 14.806 15.9477C14.8743 15.9004 14.8743 15.9004 14.9641 15.8512C14.9931 15.8351 15.0226 15.8186 15.053 15.8017C15.1334 15.7643 15.1334 15.7643 15.227 15.7643C15.227 15.7401 15.227 15.7158 15.227 15.6909C15.3056 15.6355 15.3056 15.6355 15.4085 15.5761C15.4422 15.5563 15.4758 15.5365 15.5104 15.5163C15.6012 15.4708 15.6012 15.4708 15.6947 15.4708C15.6947 15.4466 15.6947 15.4224 15.6947 15.3974C15.7719 15.3431 15.7719 15.3431 15.879 15.2804C15.9174 15.2577 15.9558 15.2349 15.9955 15.2114C16.0353 15.188 16.075 15.1645 16.1157 15.1406C16.1873 15.097 16.2584 15.0537 16.3295 15.01C16.3983 14.9679 16.4675 14.9257 16.5367 14.8838C16.5718 14.8622 16.6069 14.8409 16.6434 14.8185C16.6766 14.7984 16.7098 14.7786 16.7444 14.7577C16.7743 14.7397 16.8043 14.7213 16.8347 14.7026C16.9109 14.6637 16.9109 14.6637 17.0045 14.6637C17.0045 14.6395 17.0045 14.6153 17.0045 14.5904C17.0831 14.535 17.0831 14.535 17.186 14.4756C17.2196 14.4557 17.2533 14.4359 17.2879 14.4158C17.3787 14.3703 17.3787 14.3703 17.4722 14.3703C17.4722 14.3461 17.4722 14.3218 17.4722 14.2969C18.1388 13.8083 18.7609 13.6285 19.6534 13.6336C19.7268 13.6336 19.7268 13.6336 19.8017 13.634C19.9654 13.6344 20.1286 13.6351 20.2919 13.6359C20.4093 13.6362 20.5267 13.6366 20.6441 13.637C20.8644 13.6377 21.0843 13.6381 21.3041 13.6392C21.7363 13.6406 22.1681 13.6417 22.6003 13.6425C22.6686 13.6425 22.7364 13.6428 22.8047 13.6428C22.9076 13.6428 23.011 13.6432 23.1144 13.6436C23.5031 13.6443 23.8913 13.645 24.28 13.6458C24.3156 13.6458 24.3511 13.6461 24.3876 13.6461C24.9634 13.6472 25.5388 13.6494 26.1146 13.6516C26.7063 13.6538 27.298 13.6549 27.8892 13.6557C28.2541 13.656 28.6185 13.6571 28.9833 13.6593C29.2626 13.6604 29.5418 13.6608 29.8216 13.6608C29.9357 13.6608 30.0503 13.6612 30.1649 13.6623C30.3211 13.6634 30.4774 13.6634 30.6341 13.6626C30.7019 13.6637 30.7019 13.6637 30.7711 13.6648C31.0981 13.6615 31.2646 13.5849 31.505 13.4165C31.5602 13.3846 31.6154 13.3534 31.6716 13.3226C31.6973 13.3086 31.723 13.2943 31.7497 13.2796C31.7749 13.2657 31.8007 13.2518 31.8268 13.2375C31.853 13.2228 31.8797 13.2081 31.9073 13.1927C32.1024 13.0863 32.1024 13.0863 32.2067 13.0863C32.2067 13.0621 32.2067 13.0379 32.2067 13.013C32.2717 12.9689 32.2717 12.9689 32.3624 12.9198C32.3961 12.9014 32.4293 12.8835 32.4635 12.8647C32.4995 12.8457 32.535 12.8262 32.572 12.8064C32.6454 12.7668 32.7184 12.7272 32.7909 12.6876C32.8452 12.6582 32.8452 12.6582 32.8999 12.6285C33.0772 12.5313 33.2498 12.4297 33.4228 12.3281C33.5164 12.2793 33.5164 12.2793 33.61 12.2793C33.61 12.2551 33.61 12.2308 33.61 12.2059C33.8153 12.0958 33.8153 12.0958 33.9374 12.0958C33.9374 12.0716 33.9374 12.0474 33.9374 12.0225C34.0277 11.9664 34.1175 11.915 34.2124 11.864C34.2728 11.831 34.3331 11.798 34.393 11.765C34.4257 11.7473 34.458 11.7294 34.4912 11.7114C34.6666 11.6146 34.8397 11.5159 35.0132 11.4172C35.0843 11.3768 35.1554 11.3365 35.227 11.2961C35.3617 11.2202 35.496 11.1435 35.6302 11.0669C35.6896 11.0331 35.749 10.9994 35.8084 10.9652C35.8356 10.9498 35.8631 10.9341 35.8907 10.9179C36.0788 10.8119 36.0788 10.8119 36.1826 10.8119C36.1826 10.7877 36.1826 10.7635 36.1826 10.7385C36.388 10.6285 36.388 10.6285 36.5101 10.6285C36.5101 10.6043 36.5101 10.5801 36.5101 10.5551C36.6003 10.499 36.6901 10.4476 36.7851 10.3966C36.8445 10.364 36.9044 10.3313 36.9643 10.2987C36.9961 10.2807 37.0283 10.2631 37.0615 10.2451C37.2477 10.1428 37.4311 10.0382 37.6154 9.93368C37.6514 9.91314 37.6874 9.89296 37.7244 9.87205C37.9171 9.7631 37.9171 9.7631 38.1061 9.64974C38.194 9.60132 38.194 9.60132 38.2875 9.60132C38.2875 9.57711 38.2875 9.5529 38.2875 9.52795C38.3339 9.52795 38.3802 9.52795 38.4279 9.52795C38.4279 9.50374 38.4279 9.47953 38.4279 9.45458C38.6332 9.34453 38.6332 9.34453 38.7553 9.34453C38.7553 9.32032 38.7553 9.29611 38.7553 9.27116C38.8751 9.18679 38.9181 9.16111 39.0827 9.16111C39.0827 9.1369 39.0827 9.11269 39.0827 9.08774C39.152 9.04005 39.152 9.04005 39.2488 8.98649C39.2843 8.96668 39.3199 8.94687 39.3564 8.92633C39.3943 8.90542 39.4326 8.88451 39.4714 8.86287C39.5491 8.81995 39.6263 8.77703 39.7035 8.73374C39.7413 8.71283 39.7792 8.69192 39.8181 8.67027C39.9967 8.57049 40.1717 8.46778 40.3471 8.36469C40.4392 8.31737 40.4392 8.31737 40.5328 8.31737C40.5328 8.29316 40.5328 8.26895 40.5328 8.244C40.7381 8.13395 40.7381 8.13395 40.8602 8.13395C40.8602 8.10974 40.8602 8.08553 40.8602 8.06058C41.0656 7.95053 41.0656 7.95053 41.1877 7.95053C41.1877 7.92632 41.1877 7.90211 41.1877 7.87716C41.234 7.87716 41.2803 7.87716 41.328 7.87716C41.328 7.85295 41.328 7.82874 41.328 7.80379C41.4183 7.74767 41.5081 7.69631 41.603 7.64532C41.6624 7.61267 41.7223 7.58002 41.7822 7.54737C41.814 7.52939 41.8463 7.51179 41.8795 7.49381C42.0656 7.39146 42.249 7.28691 42.4333 7.18236C42.4693 7.16182 42.5053 7.14164 42.5423 7.12073C42.735 7.01178 42.735 7.01178 42.924 6.89843C43.0119 6.85 43.0119 6.85 43.1055 6.85C43.1055 6.82579 43.1055 6.80158 43.1055 6.77663C43.1794 6.73188 43.1794 6.73188 43.2781 6.68492C43.3099 6.66915 43.3422 6.65374 43.3749 6.63797C43.6729 6.51067 43.9269 6.50517 44.2604 6.5037ZM40.6731 11.6923C40.7199 11.7657 40.7199 11.7657 40.7199 11.7657L40.6731 11.6923ZM40.3686 11.8541C40.3368 11.8732 40.3055 11.8919 40.2727 11.9113C40.24 11.9315 40.2072 11.9513 40.1731 11.9719C40.0767 12.0298 40.0767 12.0298 39.9799 12.0881C39.9476 12.1076 39.9154 12.1267 39.8826 12.1468C39.63 12.2991 39.3812 12.4447 39.1047 12.5698C39.0823 12.583 39.0594 12.5959 39.036 12.6094C39.036 12.6336 39.036 12.6578 39.036 12.6828C39.0051 12.6905 38.9738 12.6982 38.9419 12.7063C38.7534 12.7734 38.6028 12.868 38.4396 12.9671C38.1987 13.112 37.9578 13.2514 37.6986 13.3765C37.6767 13.3897 37.6551 13.4029 37.6327 13.4165C37.6327 13.4407 37.6327 13.4649 37.6327 13.4898C37.6009 13.4983 37.5686 13.5071 37.5359 13.5163C37.3707 13.5728 37.2276 13.6476 37.0803 13.7283C37.0522 13.743 37.0246 13.7576 36.9956 13.773C36.9254 13.8112 36.8581 13.8519 36.7907 13.8934C36.7907 13.9176 36.7907 13.9418 36.7907 13.9667C36.7542 13.9781 36.7177 13.9895 36.6799 14.0012C36.5606 14.0375 36.5606 14.0375 36.4633 14.0768C36.4633 14.101 36.4633 14.1252 36.4633 14.1502C36.4366 14.1601 36.41 14.17 36.3824 14.1802C36.2738 14.2246 36.1761 14.2742 36.075 14.3284C36.0372 14.349 35.9993 14.3695 35.96 14.3904C35.901 14.4224 35.901 14.4224 35.8407 14.455C35.8019 14.4759 35.763 14.4968 35.7233 14.5181C35.647 14.5592 35.5708 14.6006 35.495 14.6421C35.4258 14.6795 35.3561 14.7169 35.2864 14.754C35.2092 14.7954 35.1344 14.8395 35.06 14.8838C35.06 14.9081 35.06 14.9323 35.06 14.9572C35.0235 14.9686 34.987 14.98 34.9491 14.9917C34.8299 15.028 34.8299 15.028 34.7326 15.0673C34.7326 15.0915 34.7326 15.1157 34.7326 15.1406C34.7059 15.1498 34.6788 15.1586 34.6507 15.1682C34.5314 15.2199 34.4529 15.2841 34.3584 15.3607C34.4575 15.4158 34.5572 15.4708 34.6568 15.5258C34.6849 15.5416 34.7129 15.5574 34.7424 15.5735C34.8874 15.6616 34.8874 15.6616 35.06 15.6909C35.06 15.7151 35.06 15.7393 35.06 15.7643C35.1325 15.7958 35.1325 15.7958 35.2064 15.8285C35.322 15.8798 35.4328 15.9341 35.5423 15.9935C35.6564 16.0643 35.6564 16.0643 35.7616 16.0577C35.7616 16.082 35.7616 16.1062 35.7616 16.1311C35.808 16.1311 35.8543 16.1311 35.902 16.1311C35.902 16.1553 35.902 16.1795 35.902 16.2045C36.0035 16.2639 36.0035 16.2639 36.133 16.3237C36.3445 16.4257 36.5508 16.5313 36.7547 16.6421C36.8347 16.6876 36.8347 16.6876 36.931 16.6814C36.931 16.7056 36.931 16.7298 36.931 16.7547C37.1153 16.8395 37.2908 16.9173 37.4924 16.9748C37.4924 16.9991 37.4924 17.0233 37.4924 17.0482C37.5387 17.0482 37.585 17.0482 37.6327 17.0482C37.6327 17.0724 37.6327 17.0966 37.6327 17.1216C37.7435 17.1884 37.7435 17.1883 37.8811 17.2544C37.9274 17.2775 37.9737 17.301 38.0209 17.3248C38.1439 17.3872 38.1439 17.3872 38.2875 17.3784C38.2997 17.3472 38.3114 17.3164 38.3236 17.2845C38.4017 17.0827 38.4812 16.8831 38.579 16.6869C38.6262 16.5838 38.6655 16.4789 38.7057 16.374C38.7736 16.1979 38.8521 16.0295 38.9424 15.8596C39.0168 15.7078 39.0734 15.5515 39.1328 15.3956C39.1763 15.2874 39.1763 15.2874 39.2465 15.1612C39.3147 15.0343 39.3611 14.911 39.4074 14.7782C39.4705 14.5988 39.5421 14.4326 39.6473 14.2661C39.7072 14.1568 39.7437 14.0445 39.7844 13.9301C39.8209 13.8427 39.8578 13.7554 39.8957 13.6685C39.9724 13.4898 40.0459 13.3105 40.1151 13.1296C40.181 12.9594 40.2582 12.7961 40.3452 12.6318C40.4196 12.481 40.4776 12.3266 40.5361 12.1722C40.5665 12.094 40.5983 12.0162 40.632 11.9392C40.6778 11.8449 40.6778 11.8449 40.6731 11.7657C40.5146 11.7657 40.4898 11.7811 40.3686 11.8541ZM19.2848 16.7958C19.0257 16.9708 19.0257 16.9708 18.9223 17.0115C18.9223 17.0357 18.9223 17.06 18.9223 17.0849C18.8952 17.0948 18.8676 17.1051 18.8395 17.1153C18.7389 17.1568 18.6557 17.2023 18.5659 17.2566C18.4194 17.3446 18.2707 17.4275 18.1182 17.509C17.947 17.6021 17.8048 17.7012 17.6593 17.8186C17.5817 17.8553 17.5036 17.892 17.4255 17.9286C17.4255 17.9528 17.4255 17.9771 17.4255 18.002C17.2851 18.057 17.2851 18.057 17.1448 18.1121C17.1448 18.1363 17.1448 18.1605 17.1448 18.1854C17.106 18.2001 17.106 18.2001 17.0658 18.2151C16.9479 18.2628 16.8347 18.3109 16.7238 18.3688C16.7238 18.3931 16.7238 18.4173 16.7238 18.4422C16.699 18.4514 16.6738 18.4602 16.648 18.4697C16.5096 18.5266 16.3828 18.5901 16.2561 18.6623C16.2561 18.6865 16.2561 18.7107 16.2561 18.7357C16.2186 18.7485 16.2186 18.7485 16.1803 18.7617C16.0371 18.8226 15.9132 18.8997 15.7855 18.9785C15.5409 19.1286 15.2925 19.2716 15.0375 19.4107C15.0076 19.4301 14.9777 19.4496 14.9463 19.4694C14.9463 19.4936 14.9463 19.5178 14.9463 19.5427C14.9215 19.5519 14.8963 19.5607 14.8706 19.5703C14.7321 19.6271 14.6053 19.6906 14.4786 19.7628C14.4786 19.7871 14.4786 19.8113 14.4786 19.8362C14.4533 19.8454 14.4281 19.8542 14.4019 19.8637C14.2667 19.9199 14.1465 19.9863 14.0225 20.0563C13.9767 20.082 13.9304 20.1077 13.8831 20.1341C13.848 20.1568 13.8129 20.1796 13.7769 20.2031C13.7769 20.2273 13.7769 20.2515 13.7769 20.2764C13.7521 20.2856 13.7269 20.2944 13.7012 20.3039C13.5627 20.3608 13.4359 20.4243 13.3092 20.4965C13.3092 20.5207 13.3092 20.545 13.3092 20.5699C13.282 20.5798 13.2549 20.5901 13.2268 20.6003C12.9158 20.728 12.6468 20.9257 12.3769 21.0996C11.9934 21.3447 11.6107 21.5842 11.1982 21.7996C11.1551 21.8263 11.1551 21.8263 11.1107 21.8538C11.1107 21.8781 11.1107 21.9023 11.1107 21.9272C11.0859 21.9364 11.0606 21.9452 11.0349 21.9547C10.8965 22.0116 10.7697 22.0751 10.6429 22.1473C10.6429 22.1715 10.6429 22.1957 10.6429 22.2207C10.5494 22.2574 10.4558 22.2941 10.3623 22.3307C10.3623 22.355 10.3623 22.3792 10.3623 22.4041C10.3127 22.417 10.3127 22.417 10.2617 22.4305C10.1059 22.4852 10.0002 22.5549 9.87114 22.6426C9.66298 22.7823 9.45156 22.9173 9.23405 23.0483C9.19475 23.0718 9.19475 23.0718 9.155 23.096C8.97117 23.2064 8.97117 23.2064 8.86545 23.2478C8.86545 23.2721 8.86545 23.2963 8.86545 23.3212C8.84019 23.3304 8.81493 23.3392 8.78874 23.3487C8.65356 23.4049 8.53334 23.4713 8.40939 23.5413C8.36355 23.567 8.31724 23.5927 8.26999 23.6191C8.21761 23.6532 8.2176 23.6532 8.16381 23.6881C8.16381 23.7123 8.16381 23.7365 8.16381 23.7614C8.13902 23.7706 8.11376 23.7794 8.08804 23.7889C7.94958 23.8458 7.82281 23.9093 7.69605 23.9815C7.69605 24.0057 7.69605 24.03 7.69605 24.0549C7.67079 24.0637 7.64553 24.0725 7.61981 24.0813C7.48041 24.1404 7.36207 24.2123 7.23718 24.2886C7.21099 24.3047 7.18432 24.3209 7.15719 24.3374C6.92378 24.4797 6.69271 24.6253 6.4621 24.7706C6.2619 24.8964 6.0603 25.0208 5.85729 25.1437C5.83156 25.1595 5.8063 25.1749 5.78011 25.1906C5.68796 25.246 5.60142 25.2981 5.49758 25.3388C5.49758 25.3631 5.49758 25.3873 5.49758 25.4122C5.40403 25.4489 5.31048 25.4856 5.21692 25.5223C5.21692 25.5465 5.21692 25.5707 5.21692 25.5956C5.15518 25.6077 5.09344 25.6198 5.02982 25.6323C5.02982 25.6565 5.02982 25.6807 5.02982 25.7057C4.93627 25.7424 4.84272 25.7791 4.74916 25.8157C4.74916 25.84 4.74916 25.8642 4.74916 25.8891C4.72344 25.899 4.69724 25.9086 4.67011 25.9188C4.55224 25.9665 4.43904 26.0146 4.32818 26.0725C4.32818 26.0967 4.32818 26.121 4.32818 26.1459C4.29076 26.1595 4.29076 26.1595 4.2524 26.1734C4.11395 26.2303 3.98718 26.2937 3.86042 26.366C3.86042 26.3902 3.86042 26.4144 3.86042 26.4394C3.81552 26.4563 3.81552 26.4563 3.77014 26.4739C3.67659 26.5065 3.67659 26.5065 3.62654 26.5494C3.62233 26.5986 3.62093 26.6477 3.62093 26.6973C3.62093 26.7292 3.62093 26.7607 3.62093 26.7937C3.62093 26.829 3.6214 26.8642 3.6214 26.9005C3.6214 26.9372 3.6214 26.9742 3.6214 27.012C3.6214 27.1345 3.62186 27.2571 3.62186 27.3796C3.62233 27.464 3.62233 27.5487 3.62233 27.6334C3.62233 27.8569 3.6228 28.0803 3.62327 28.3033C3.62373 28.5311 3.6242 28.7589 3.6242 28.9864C3.62467 29.4335 3.62561 29.8807 3.62654 30.3279C3.68922 30.2989 3.75143 30.2699 3.81364 30.2406C3.84873 30.2245 3.88334 30.2083 3.91889 30.1918C3.94602 30.176 3.97315 30.1606 4.00075 30.1445C4.00075 30.1203 4.00075 30.0961 4.00075 30.0711C4.02601 30.0619 4.05174 30.0528 4.07746 30.0436C4.21264 29.9875 4.33286 29.9211 4.45681 29.851C4.50312 29.8253 4.54896 29.7996 4.59667 29.7729C4.63129 29.7501 4.66637 29.7277 4.70239 29.7043C4.70239 29.6801 4.70239 29.6558 4.70239 29.6309C4.79594 29.5942 4.88949 29.5575 4.98304 29.5208C4.98304 29.4966 4.98304 29.4724 4.98304 29.4475C5.0083 29.4383 5.0331 29.4291 5.05929 29.42C5.19728 29.3627 5.32451 29.2993 5.4508 29.2274C5.4508 29.2032 5.4508 29.179 5.4508 29.154C5.4756 29.1456 5.50039 29.1371 5.52564 29.1287C5.6758 29.0645 5.80583 28.9827 5.93915 28.8994C5.96768 28.8818 5.99621 28.8642 6.02568 28.8459C6.25254 28.7043 6.47473 28.5586 6.69317 28.4093C6.81058 28.3301 6.92846 28.2582 7.05896 28.1932C7.09919 28.1712 7.13989 28.1492 7.18152 28.1268C7.18152 28.1026 7.18152 28.0784 7.18152 28.0535C7.20678 28.0443 7.2325 28.0351 7.25823 28.026C7.39341 27.9698 7.51363 27.9034 7.63758 27.8334C7.68389 27.8077 7.72973 27.782 7.77744 27.7552C7.81206 27.7325 7.84714 27.7101 7.88316 27.6866C7.88316 27.6624 7.88316 27.6382 7.88316 27.6133C7.90842 27.6041 7.93321 27.5949 7.9594 27.5858C8.09739 27.5285 8.22462 27.4651 8.35092 27.3932C8.35092 27.369 8.35092 27.3447 8.35092 27.3198C8.37617 27.3106 8.4019 27.3015 8.42763 27.2923C8.56281 27.2362 8.68303 27.1698 8.80698 27.0997C8.85329 27.074 8.89913 27.0483 8.94684 27.0216C8.98146 26.9988 9.01654 26.9764 9.05256 26.953C9.05256 26.9287 9.05256 26.9045 9.05256 26.8796C9.07828 26.8708 9.10401 26.862 9.13067 26.8528C9.26445 26.7956 9.37157 26.7248 9.48804 26.6477C9.63866 26.5494 9.78834 26.4548 9.95019 26.3682C9.99369 26.3433 10.0372 26.3183 10.0816 26.2926C10.0816 26.2684 10.0816 26.2442 10.0816 26.2193C10.1069 26.2101 10.1326 26.2009 10.1583 26.1918C10.2935 26.1356 10.4137 26.0692 10.5377 25.9992C10.584 25.9735 10.6298 25.9478 10.6776 25.921C10.7122 25.8983 10.7472 25.8759 10.7833 25.8524C10.7833 25.8282 10.7833 25.804 10.7833 25.7791C10.8768 25.7424 10.9704 25.7057 11.0639 25.669C11.0639 25.6448 11.0639 25.6206 11.0639 25.5956C11.0887 25.5872 11.1135 25.5788 11.1392 25.57C11.2866 25.5072 11.4133 25.4273 11.5434 25.3455C11.5719 25.3278 11.6004 25.3102 11.6294 25.2923C11.8806 25.1356 12.129 24.9768 12.3769 24.8176C12.6085 24.6694 12.8437 24.5263 13.0842 24.3876C13.1455 24.3517 13.2044 24.3135 13.2624 24.275C13.2624 24.2508 13.2624 24.2266 13.2624 24.2016C13.2877 24.1925 13.3124 24.1833 13.3386 24.1741C13.4766 24.1169 13.6039 24.0534 13.7302 23.9815C13.7302 23.9573 13.7302 23.9331 13.7302 23.9082C13.8462 23.8718 13.8462 23.8718 13.964 23.8348C13.964 23.8106 13.964 23.7864 13.964 23.7614C13.9893 23.7523 14.0141 23.7431 14.0403 23.7339C14.1783 23.6767 14.3055 23.6132 14.4318 23.5413C14.4318 23.5171 14.4318 23.4929 14.4318 23.468C14.4571 23.4588 14.4828 23.4496 14.5085 23.4404C14.6437 23.3843 14.7639 23.3179 14.8879 23.2478C14.9342 23.2222 14.98 23.1961 15.0277 23.1697C15.0623 23.147 15.0974 23.1242 15.1334 23.1011C15.1334 23.0769 15.1334 23.0527 15.1334 23.0277C15.1592 23.0189 15.1849 23.0101 15.2115 23.001C15.3453 22.9437 15.4524 22.8729 15.5689 22.7959C15.7195 22.6976 15.8692 22.6029 16.0311 22.5164C16.0746 22.4914 16.1181 22.4665 16.1625 22.4408C16.1625 22.4166 16.1625 22.3924 16.1625 22.3674C16.1878 22.3583 16.2135 22.3491 16.2392 22.3399C16.3744 22.2838 16.4946 22.2174 16.6186 22.1473C16.6649 22.1216 16.7107 22.0956 16.7584 22.0692C16.793 22.0464 16.8281 22.0237 16.8641 22.0006C16.8641 21.9764 16.8641 21.9522 16.8641 21.9272C16.9577 21.8905 17.0512 21.8538 17.1448 21.8172C17.1448 21.793 17.1448 21.7687 17.1448 21.7438C17.2065 21.7317 17.2683 21.7196 17.3319 21.7071C17.3319 21.6829 17.3319 21.6587 17.3319 21.6337C17.4255 21.5971 17.519 21.5604 17.6126 21.5237C17.6126 21.4995 17.6126 21.4753 17.6126 21.4503C17.6374 21.4419 17.6621 21.4334 17.6874 21.425C17.8376 21.3608 17.9676 21.279 18.1009 21.1957C18.1294 21.1781 18.158 21.1605 18.1874 21.1422C18.4143 21.0006 18.6365 20.8549 18.8549 20.7056C18.9723 20.6264 19.0902 20.5545 19.2207 20.4896C19.2609 20.4676 19.3016 20.4455 19.3433 20.4232C19.3433 20.399 19.3433 20.3747 19.3433 20.3498C19.3685 20.3406 19.3943 20.3315 19.42 20.3223C19.5552 20.2662 19.6754 20.1998 19.7993 20.1297C19.8456 20.104 19.8915 20.078 19.9392 20.0516C19.9738 20.0288 20.0089 20.0061 20.0449 19.983C20.0449 19.9587 20.0449 19.9345 20.0449 19.9096C20.0702 19.9004 20.095 19.8912 20.1212 19.8821C20.2591 19.8248 20.3864 19.7614 20.5127 19.6895C20.5127 19.6653 20.5127 19.6411 20.5127 19.6161C20.5379 19.6069 20.5637 19.5978 20.5894 19.5886C20.7246 19.5325 20.8448 19.4661 20.9687 19.396C21.015 19.3703 21.0609 19.3443 21.1086 19.3179C21.1432 19.2951 21.1783 19.2724 21.2143 19.2493C21.2143 19.2251 21.2143 19.2008 21.2143 19.1759C21.2531 19.1627 21.2531 19.1627 21.2924 19.1491C21.4262 19.0919 21.5333 19.0211 21.6498 18.9441C21.8004 18.8457 21.9501 18.7511 22.1119 18.6645C22.1554 18.6396 22.1989 18.6146 22.2434 18.589C22.2434 18.5647 22.2434 18.5405 22.2434 18.5156C22.2686 18.5064 22.2944 18.4972 22.3201 18.4881C22.4553 18.4319 22.5755 18.3655 22.6995 18.2955C22.7458 18.2698 22.7916 18.2438 22.8393 18.2173C22.8739 18.1946 22.909 18.1719 22.945 18.1487C22.945 18.1245 22.945 18.1003 22.945 18.0754C23.0386 18.0387 23.1321 18.002 23.2257 17.9653C23.2257 17.9411 23.2257 17.9169 23.2257 17.892C23.2874 17.8798 23.3492 17.8677 23.4128 17.8553C23.4128 17.8311 23.4128 17.8068 23.4128 17.7819C23.439 17.7727 23.4652 17.7636 23.4923 17.754C23.6181 17.7008 23.7182 17.6363 23.8282 17.564C24.0293 17.433 24.2328 17.305 24.439 17.1788C24.9489 16.8721 24.9489 16.8721 25.4242 16.5346C25.3488 16.4756 25.2684 16.4928 25.1641 16.4928C25.1182 16.4924 25.0719 16.4925 25.0247 16.4921C24.948 16.4921 24.948 16.4921 24.8699 16.4921C24.8165 16.4917 24.7632 16.4917 24.708 16.4914C24.5307 16.491 24.353 16.4906 24.1752 16.4902C24.0522 16.4902 23.9292 16.4899 23.8062 16.4899C23.5812 16.4895 23.3557 16.4891 23.1303 16.4891C22.7991 16.4888 22.4674 16.4884 22.1358 16.4873C21.8491 16.4862 21.5619 16.4862 21.2747 16.4858C21.1526 16.4858 21.0305 16.4855 20.9084 16.4851C20.7377 16.4844 20.5665 16.4844 20.3957 16.4847C20.32 16.4844 20.32 16.4844 20.2428 16.4836C19.8255 16.4855 19.5977 16.582 19.2848 16.7958ZM32.3938 17.8186C32.3938 21.5835 32.3938 25.3484 32.3938 29.2274C34.9875 29.2428 34.9875 29.2428 37.5812 29.2556C37.6243 29.256 37.6678 29.2564 37.7122 29.2564C40.1726 29.267 42.633 29.267 45.0935 29.2663C45.1739 29.2663 45.1739 29.2663 45.2558 29.2663C46.6286 29.2659 48.0011 29.2652 49.3735 29.2641C49.3866 28.939 49.3964 28.614 49.4025 28.289C49.4057 28.1382 49.4095 27.9871 49.416 27.8363C49.4221 27.6907 49.4254 27.5447 49.4268 27.399C49.4277 27.3433 49.4301 27.2879 49.4329 27.2325C49.4422 27.059 49.4408 26.9005 49.3735 26.7328C49.2074 26.5986 49.0311 26.5127 48.8121 26.4394C48.7813 26.4394 48.7504 26.4394 48.7186 26.4394C48.7186 26.4152 48.7186 26.391 48.7186 26.366C48.6218 26.3091 48.6218 26.3091 48.4964 26.2512C48.067 26.0425 47.6498 25.8234 47.2442 25.5868C47.0403 25.4614 47.0403 25.4614 46.8008 25.4122C46.8008 25.388 46.8008 25.3638 46.8008 25.3388C46.7545 25.319 46.7082 25.2996 46.6605 25.2791C46.5281 25.22 46.4074 25.1551 46.2862 25.0821C46.1534 25.0017 46.0196 24.935 45.8718 24.8719C45.6983 24.7908 45.5355 24.6972 45.3718 24.6048C45.2343 24.5215 45.2343 24.5215 45.0701 24.4951C45.0701 24.4709 45.0701 24.4467 45.0701 24.4217C45.0238 24.4217 44.9775 24.4217 44.9297 24.4217C44.9297 24.3975 44.9297 24.3733 44.9297 24.3484C44.8376 24.2937 44.8376 24.2937 44.7164 24.2383C44.4914 24.129 44.2697 24.0168 44.0499 23.9012C44.0209 23.8858 43.9919 23.8707 43.9619 23.855C43.9339 23.8403 43.9053 23.8253 43.8763 23.8102C43.8492 23.7959 43.8221 23.7816 43.794 23.7669C43.7402 23.7387 43.6869 23.7101 43.6336 23.6811C43.4993 23.6022 43.4993 23.6022 43.3394 23.578C43.3394 23.5538 43.3394 23.5296 43.3394 23.5046C43.293 23.5046 43.2467 23.5046 43.199 23.5046C43.199 23.4804 43.199 23.4562 43.199 23.4313C43.1069 23.3766 43.1069 23.3766 42.9857 23.3212C42.7678 23.2152 42.5526 23.1073 42.3398 22.9955C42.3098 22.9801 42.2799 22.9643 42.249 22.9481C41.9829 22.8084 41.7195 22.6653 41.4566 22.5219C41.052 22.3014 40.6483 22.0817 40.2311 21.877C40.0622 21.7919 39.8999 21.7001 39.7376 21.6073C39.6497 21.5538 39.6497 21.5538 39.5505 21.5604C39.5505 21.5362 39.5505 21.512 39.5505 21.487C39.5093 21.4694 39.4677 21.4522 39.4247 21.4342C39.2306 21.3472 39.0486 21.2471 38.8652 21.1466C38.6552 21.0318 38.4442 20.918 38.2319 20.8061C38.2019 20.7896 38.1715 20.7735 38.1402 20.757C37.9929 20.6715 37.9929 20.6715 37.8198 20.6433C37.8198 20.6191 37.8198 20.5948 37.8198 20.5699C37.7735 20.5699 37.7272 20.5699 37.6795 20.5699C37.6795 20.5457 37.6795 20.5215 37.6795 20.4965C37.578 20.4371 37.578 20.4371 37.4489 20.3773C37.2374 20.275 37.0311 20.1693 36.8272 20.0585C36.7467 20.0134 36.7467 20.0134 36.6504 20.0196C36.6504 19.9954 36.6504 19.9712 36.6504 19.9463C36.4661 19.8612 36.2907 19.7834 36.0891 19.7262C36.0891 19.702 36.0891 19.6777 36.0891 19.6528C36.0428 19.6528 35.9965 19.6528 35.9487 19.6528C35.9487 19.6286 35.9487 19.6044 35.9487 19.5794C35.8566 19.5248 35.8566 19.5248 35.7355 19.4694C35.5175 19.3634 35.3023 19.2555 35.0895 19.1436C35.0595 19.1282 35.0296 19.1124 34.9987 19.0963C34.7326 18.9565 34.4692 18.8135 34.2063 18.67C33.5959 18.3369 33.5959 18.3369 32.9705 18.0214C32.8615 17.9653 32.8615 17.9653 32.7451 17.885C32.6202 17.8006 32.6202 17.8006 32.3938 17.8186ZM28.5114 18.1854C28.5114 18.2096 28.5114 18.2339 28.5114 18.2588C28.4739 18.2724 28.4739 18.2724 28.4356 18.2863C28.2971 18.3432 28.1704 18.4066 28.0436 18.4789C28.0436 18.5031 28.0436 18.5273 28.0436 18.5523C28.0043 18.5658 28.0043 18.5658 27.9646 18.5798C27.8383 18.6333 27.7386 18.6975 27.6287 18.7702C27.4234 18.9037 27.2157 19.035 27.0056 19.1642C26.9781 19.1814 26.9505 19.1986 26.9219 19.2163C26.7694 19.3098 26.6155 19.4008 26.4593 19.4899C26.4111 19.5193 26.3629 19.549 26.3129 19.5794C26.3129 19.6036 26.3129 19.6279 26.3129 19.6528C26.2193 19.6895 26.1258 19.7262 26.0322 19.7628C26.0322 19.7871 26.0322 19.8113 26.0322 19.8362C25.9934 19.8509 25.9934 19.8509 25.9532 19.8659C25.7867 19.9331 25.6426 19.9951 25.5088 20.0996C25.3231 20.2456 25.1164 20.3689 24.9096 20.4965C24.8315 20.5453 24.7539 20.5941 24.6757 20.6433C24.6374 20.6671 24.599 20.6913 24.5593 20.7163C24.4802 20.7662 24.4007 20.8161 24.3216 20.8659C24.1069 21.0013 23.8908 21.1334 23.6654 21.2585C23.6439 21.2735 23.6223 21.2882 23.5999 21.3036C23.5999 21.3278 23.5999 21.352 23.5999 21.377C23.5751 21.3861 23.5498 21.3949 23.5241 21.4045C23.3857 21.4613 23.2589 21.5248 23.1321 21.5971C23.1321 21.6213 23.1321 21.6455 23.1321 21.6704C23.1069 21.6796 23.0816 21.6884 23.0554 21.6979C22.9202 21.7541 22.8 21.8205 22.6761 21.8905C22.6302 21.9162 22.5839 21.9419 22.5367 21.9683C22.5016 21.991 22.4665 22.0138 22.4305 22.0373C22.4305 22.0615 22.4305 22.0857 22.4305 22.1106C22.4057 22.1198 22.3804 22.1286 22.3547 22.1382C22.2163 22.195 22.0895 22.2585 21.9627 22.3307C21.9627 22.355 21.9627 22.3792 21.9627 22.4041C21.9365 22.4133 21.9103 22.4225 21.8837 22.4316C21.7574 22.4852 21.6577 22.5494 21.5478 22.622C21.3425 22.7555 21.1348 22.8869 20.9248 23.016C20.8831 23.0421 20.8831 23.0421 20.841 23.0681C20.6886 23.1616 20.5347 23.2526 20.3784 23.3418C20.3059 23.3861 20.3059 23.3861 20.232 23.4313C20.232 23.4555 20.232 23.4797 20.232 23.5046C20.1385 23.5413 20.0449 23.578 19.9514 23.6147C19.9514 23.6389 19.9514 23.6631 19.9514 23.6881C19.9256 23.698 19.8994 23.7075 19.8723 23.7178C19.7544 23.7655 19.6412 23.8135 19.5304 23.8715C19.5304 23.8957 19.5304 23.9199 19.5304 23.9448C19.5047 23.9537 19.4785 23.9628 19.4518 23.972C19.3218 24.0274 19.2174 24.0949 19.1038 24.1694C19.035 24.2141 19.035 24.2141 18.9653 24.2596C18.9204 24.2886 18.875 24.3179 18.8287 24.3484C18.6229 24.4793 18.4152 24.6088 18.2061 24.7369C18.1505 24.771 18.0948 24.8051 18.0396 24.8388C17.998 24.8642 17.998 24.8642 17.9559 24.8902C17.7173 25.0369 17.4849 25.1888 17.2538 25.3425C17.1448 25.4122 17.1448 25.4122 17.0512 25.4489C17.0512 25.4731 17.0512 25.4973 17.0512 25.5223C17.026 25.5311 17.0007 25.5402 16.9745 25.5498C16.8394 25.6059 16.7191 25.6723 16.5952 25.7424C16.5493 25.7681 16.503 25.7937 16.4558 25.8201C16.4207 25.8429 16.3856 25.8656 16.3496 25.8891C16.3496 25.9133 16.3496 25.9375 16.3496 25.9625C16.3248 25.9713 16.2996 25.9805 16.2738 25.99C16.1354 26.0469 16.0086 26.1103 15.8819 26.1826C15.8819 26.2068 15.8819 26.231 15.8819 26.256C15.8566 26.2648 15.8313 26.2739 15.8051 26.2835C15.67 26.3396 15.5497 26.406 15.4258 26.4761C15.3799 26.5017 15.3336 26.5274 15.2864 26.5538C15.2513 26.5766 15.2162 26.5993 15.1802 26.6228C15.1802 26.647 15.1802 26.6712 15.1802 26.6962C15.1545 26.705 15.1288 26.7138 15.1021 26.7229C14.9683 26.7802 14.8612 26.8506 14.7447 26.9276C14.5941 27.026 14.4449 27.121 14.2826 27.2075C14.2395 27.2325 14.196 27.2574 14.1511 27.2831C14.1511 27.3073 14.1511 27.3315 14.1511 27.3565C14.0576 27.3932 13.964 27.4298 13.8705 27.4665C13.8705 27.4907 13.8705 27.515 13.8705 27.5399C13.8448 27.5498 13.8186 27.5593 13.7914 27.5696C13.6736 27.6173 13.5604 27.6654 13.4495 27.7233C13.4495 27.7475 13.4495 27.7717 13.4495 27.7967C13.3559 27.8334 13.2624 27.8701 13.1688 27.9067C13.1688 27.931 13.1688 27.9552 13.1688 27.9801C13.1445 27.9882 13.1197 27.9966 13.0945 28.0051C12.942 28.0704 12.8101 28.1544 12.6749 28.2391C12.6459 28.2571 12.6169 28.2751 12.5869 28.2938C12.281 28.4845 11.9789 28.6789 11.6776 28.8745C11.3029 29.117 11.3029 29.117 11.1018 29.2252C11.0588 29.2501 11.0153 29.2751 10.9704 29.3007C10.9704 29.325 10.9704 29.3492 10.9704 29.3741C10.9451 29.3829 10.9199 29.3921 10.8937 29.4016C10.7585 29.4578 10.6383 29.5242 10.5143 29.5942C10.4685 29.6199 10.4222 29.6456 10.3749 29.672C10.3398 29.6947 10.3047 29.7175 10.2687 29.741C10.2687 29.7652 10.2687 29.7894 10.2687 29.8143C10.2439 29.8231 10.2187 29.8323 10.193 29.8418C10.0545 29.8987 9.92773 29.9622 9.80097 30.0344C9.80097 30.0586 9.80097 30.0829 9.80097 30.1078C9.77571 30.1166 9.75045 30.1258 9.72426 30.1353C9.58908 30.1914 9.46886 30.2578 9.34491 30.3279C9.29907 30.3536 9.25276 30.3793 9.20551 30.4057C9.17043 30.4284 9.13535 30.4512 9.09933 30.4746C9.09933 30.4989 9.09933 30.5231 9.09933 30.548C9.0736 30.5568 9.04788 30.5656 9.02122 30.5748C8.88744 30.632 8.78032 30.7024 8.66385 30.7795C8.51323 30.8778 8.36401 30.9728 8.2017 31.0594C8.15867 31.0843 8.11516 31.1093 8.07026 31.135C8.07026 31.1592 8.07026 31.1834 8.07026 31.2083C7.92993 31.2634 7.92993 31.2634 7.7896 31.3184C7.7896 31.3426 7.7896 31.3668 7.7896 31.3917C7.76388 31.4016 7.73768 31.4112 7.71055 31.4215C7.59268 31.4691 7.47948 31.5172 7.36862 31.5752C7.36862 31.5994 7.36862 31.6236 7.36862 31.6485C7.34383 31.657 7.31904 31.6658 7.29331 31.6749C7.14924 31.7355 7.02014 31.8099 6.88917 31.887C6.86344 31.9017 6.83725 31.9163 6.81058 31.9317C6.74556 31.9699 6.68242 32.0106 6.6202 32.0521C6.6202 32.0763 6.6202 32.1005 6.6202 32.1254C6.58138 32.1401 6.58138 32.1401 6.54115 32.1551C6.37463 32.2223 6.23056 32.2843 6.09678 32.3888C5.8629 32.5726 5.59675 32.7274 5.33199 32.8837C5.29036 32.9083 5.29036 32.9083 5.2478 32.9336C5.1926 32.9662 5.13741 32.9985 5.08221 33.0304C5.01626 33.0693 4.95264 33.1108 4.88949 33.1526C4.88949 33.1768 4.88949 33.201 4.88949 33.226C4.79594 33.2626 4.70239 33.2993 4.60884 33.336C4.60884 33.3723 4.60884 33.4086 4.60884 33.4461C4.73139 33.5348 4.73139 33.5348 4.88949 33.5561C4.88949 33.5803 4.88949 33.6045 4.88949 33.6295C4.99146 33.7043 4.99146 33.7043 5.11776 33.7806C5.15986 33.8074 5.20242 33.8338 5.24593 33.8613C5.34743 33.9299 5.34743 33.9299 5.4508 33.923C5.4508 33.9472 5.4508 33.9714 5.4508 33.9963C5.57429 34.0844 5.57429 34.0844 5.73146 34.1064C5.73146 34.1306 5.73146 34.1548 5.73146 34.1797C5.8208 34.245 5.8208 34.245 5.93306 34.3103C5.97095 34.3331 6.00837 34.3558 6.04673 34.3793C6.15244 34.442 6.15244 34.442 6.29277 34.4732C6.29277 34.4974 6.29277 34.5216 6.29277 34.5466C6.37603 34.6056 6.37603 34.6056 6.48315 34.6658C6.62629 34.7502 6.76427 34.836 6.89805 34.9296C7.02201 35.0312 7.02201 35.0312 7.13474 35.0235C7.13474 35.0477 7.13474 35.0719 7.13474 35.0969C7.21192 35.1522 7.21192 35.1522 7.31296 35.2091C7.53608 35.3408 7.74985 35.4795 7.96361 35.6203C8.06044 35.6911 8.06044 35.6911 8.16381 35.6838C8.16381 35.708 8.16381 35.7322 8.16381 35.7572C8.26765 35.8272 8.37103 35.8936 8.47955 35.9589C8.50949 35.9773 8.53895 35.9956 8.56936 36.0143C8.71062 36.1005 8.84347 36.1739 9.00578 36.2341C9.00578 36.2583 9.00578 36.2825 9.00578 36.3074C9.09512 36.3727 9.09512 36.3727 9.20738 36.438C9.24527 36.4608 9.28269 36.4835 9.32105 36.507C9.42676 36.5697 9.42676 36.5697 9.56709 36.6009C9.56709 36.6251 9.56709 36.6493 9.56709 36.6743C9.64287 36.7275 9.64287 36.7275 9.7397 36.7796C9.85523 36.8449 9.96609 36.9102 10.076 36.9813C10.1668 37.0485 10.1668 37.0485 10.2687 37.0411C10.2687 37.0653 10.2687 37.0895 10.2687 37.1145C10.3707 37.1893 10.3707 37.1893 10.497 37.2656C10.5391 37.2924 10.5817 37.3188 10.6252 37.3463C10.7267 37.4149 10.7267 37.4149 10.83 37.408C10.83 37.4322 10.83 37.4564 10.83 37.4813C10.9535 37.5694 10.9535 37.5694 11.1107 37.5914C11.1107 37.6156 11.1107 37.6398 11.1107 37.6647C11.2 37.73 11.2 37.73 11.3123 37.7953C11.3502 37.8181 11.3876 37.8408 11.426 37.8643C11.5317 37.927 11.5317 37.927 11.672 37.9582C11.672 37.9824 11.672 38.0066 11.672 38.0316C11.7459 38.0844 11.7459 38.0844 11.8446 38.1394C12.0322 38.2502 12.2127 38.3658 12.3914 38.4854C12.6632 38.6673 12.9382 38.8456 13.2156 39.0221C13.2778 39.0628 13.2778 39.0628 13.3414 39.1046C13.4397 39.1761 13.4397 39.1761 13.5431 39.1688C13.5431 39.193 13.5431 39.2172 13.5431 39.2422C13.6469 39.3122 13.7503 39.3786 13.8588 39.4439C13.8887 39.4623 13.9182 39.4806 13.9486 39.4993C14.0899 39.5855 14.2227 39.6589 14.385 39.7191C14.385 39.7433 14.385 39.7675 14.385 39.7924C14.4575 39.8431 14.4575 39.8431 14.552 39.8933C14.6778 39.9648 14.7999 40.0375 14.9173 40.1178C15.0549 40.2114 15.1942 40.3027 15.335 40.393C15.3748 40.4183 15.4141 40.4436 15.4548 40.4696C15.5465 40.5331 15.5465 40.5331 15.648 40.5261C15.648 40.5503 15.648 40.5745 15.648 40.5995C15.7499 40.6743 15.7499 40.6743 15.8762 40.7506C15.9183 40.7774 15.9609 40.8038 16.0044 40.8313C16.1059 40.8999 16.1059 40.8999 16.2093 40.893C16.2093 40.9172 16.2093 40.9414 16.2093 40.9663C16.3328 41.0544 16.3328 41.0544 16.4899 41.0764C16.4899 41.1006 16.4899 41.1248 16.4899 41.1497C16.5793 41.215 16.5793 41.215 16.6915 41.2803C16.7294 41.3031 16.7669 41.3258 16.8052 41.3493C16.9109 41.412 16.9109 41.412 17.0512 41.4432C17.0512 41.4674 17.0512 41.4916 17.0512 41.5166C17.1252 41.5694 17.1252 41.5694 17.2239 41.6244C17.4086 41.7334 17.5864 41.8478 17.7618 41.966C17.9826 42.1138 18.2066 42.258 18.4344 42.3992C18.4615 42.4165 18.4887 42.4333 18.5167 42.4509C18.6463 42.5305 18.7707 42.6021 18.9223 42.6538C18.9223 42.678 18.9223 42.7022 18.9223 42.7272C19.0229 42.7939 19.1244 42.8574 19.2296 42.9198C19.2899 42.9564 19.3508 42.9928 19.4111 43.0294C19.4401 43.0471 19.4691 43.0647 19.499 43.0826C19.6132 43.1527 19.7222 43.2268 19.8307 43.302C19.9462 43.3779 20.0678 43.4469 20.1904 43.5162C20.2905 43.5779 20.3761 43.6468 20.4659 43.7176C20.5449 43.7705 20.6249 43.8222 20.7059 43.8736C20.7466 43.8992 20.7872 43.9253 20.8289 43.9521C20.9248 44.0181 20.9248 44.0181 21.0272 44.0111C21.0272 44.0353 21.0272 44.0595 21.0272 44.0845C21.1292 44.1593 21.1292 44.1593 21.2555 44.2356C21.2976 44.2624 21.3401 44.2888 21.3836 44.3163C21.4851 44.3849 21.4851 44.3849 21.5885 44.378C21.5885 44.4022 21.5885 44.4264 21.5885 44.4513C21.712 44.5394 21.712 44.5394 21.8692 44.5614C21.8692 44.5856 21.8692 44.6098 21.8692 44.6347C21.9585 44.7 21.9585 44.7 22.0708 44.7653C22.1087 44.7881 22.1461 44.8108 22.1844 44.8343C22.2902 44.897 22.2902 44.897 22.4305 44.9282C22.4305 44.9524 22.4305 44.9766 22.4305 45.0016C22.5109 45.0599 22.5109 45.0599 22.612 45.116C22.6625 45.1458 22.6625 45.1458 22.714 45.1762C22.8 45.2283 22.8 45.2283 22.8982 45.2217C22.8982 45.2459 22.8982 45.2701 22.8982 45.2951C23.0002 45.3699 23.0002 45.3699 23.1265 45.4462C23.1686 45.473 23.2112 45.4994 23.2547 45.5269C23.3562 45.5955 23.3562 45.5955 23.4596 45.5885C23.4596 45.6127 23.4596 45.637 23.4596 45.6619C23.5634 45.732 23.6668 45.7984 23.7753 45.8637C23.8052 45.882 23.8347 45.9004 23.8651 45.9191C24.0064 46.0053 24.1392 46.0786 24.3015 46.1388C24.3015 46.163 24.3015 46.1872 24.3015 46.2122C24.3787 46.2364 24.4559 46.2606 24.5354 46.2855C24.5354 46.3097 24.5354 46.334 24.5354 46.3589C24.6187 46.418 24.6187 46.418 24.7258 46.4781C24.8656 46.561 25.0027 46.6447 25.1346 46.7349C25.3255 46.8839 25.3255 46.8839 25.5645 46.9459C25.5645 46.9701 25.5645 46.9943 25.5645 47.0192C25.6431 47.075 25.7245 47.1278 25.8072 47.1795C25.8522 47.2078 25.8975 47.236 25.9438 47.2654C26.0107 47.3068 26.0107 47.3068 26.079 47.3494C26.1426 47.3908 26.1426 47.3908 26.2072 47.4334C26.3035 47.5035 26.3035 47.5035 26.4064 47.4961C26.4064 47.5203 26.4064 47.5445 26.4064 47.5695C26.5103 47.6395 26.6137 47.7059 26.7222 47.7712C26.7521 47.7896 26.7816 47.8079 26.812 47.8266C26.9533 47.9128 27.0861 47.9862 27.2484 48.0464C27.2484 48.0706 27.2484 48.0948 27.2484 48.1197C27.3378 48.185 27.3378 48.185 27.45 48.2503C27.4879 48.2731 27.5253 48.2958 27.5637 48.3193C27.6694 48.382 27.6694 48.382 27.8097 48.4132C27.8097 48.4374 27.8097 48.4616 27.8097 48.4866C27.8902 48.5449 27.8902 48.5449 27.9912 48.601C28.0417 48.6308 28.0417 48.6308 28.0932 48.6612C28.1793 48.7133 28.1793 48.7133 28.2775 48.7067C28.2775 48.7309 28.2775 48.7551 28.2775 48.7801C28.3519 48.8329 28.4295 48.8828 28.5086 48.9312C28.5516 48.958 28.5942 48.9844 28.6386 49.0119C28.7293 49.0772 28.7293 49.0772 28.792 49.0735C28.792 38.8441 28.792 28.6148 28.792 18.0754C28.6872 18.0754 28.5951 18.1414 28.5114 18.1854ZM3.62654 36.4542C3.62654 41.1512 3.62654 45.8483 3.62654 50.6876C10.8661 50.6876 18.1056 50.6876 25.5645 50.6876C25.3863 50.5479 25.2095 50.4184 25.0177 50.2907C24.9905 50.2724 24.9634 50.254 24.9358 50.235C24.8011 50.1337 24.8011 50.1337 24.629 50.1007C24.629 50.0765 24.629 50.0523 24.629 50.0273C24.5256 49.9569 24.4217 49.8909 24.3132 49.8256C24.2838 49.8072 24.2538 49.7889 24.2234 49.7702C24.0821 49.684 23.9493 49.6106 23.787 49.5504C23.787 49.5262 23.787 49.502 23.787 49.4771C23.7037 49.418 23.7037 49.418 23.5971 49.3578C23.4539 49.2735 23.316 49.1873 23.1822 49.0941C23.0578 48.9921 23.0578 48.9921 22.945 49.0002C22.945 48.976 22.945 48.9517 22.945 48.9268C22.8557 48.8615 22.8557 48.8615 22.7434 48.7962C22.6873 48.7617 22.6873 48.7617 22.6298 48.7272C22.524 48.6641 22.524 48.6641 22.3837 48.6333C22.3837 48.6091 22.3837 48.5849 22.3837 48.56C22.3037 48.5016 22.3037 48.5016 22.2027 48.4451C22.1522 48.4154 22.1522 48.4154 22.1007 48.3853C22.0147 48.3333 22.0147 48.3332 21.916 48.3399C21.916 48.3156 21.916 48.2914 21.916 48.2665C21.8144 48.1913 21.8144 48.1913 21.6882 48.115C21.6456 48.0886 21.6035 48.0618 21.56 48.0346C21.4585 47.966 21.4585 47.966 21.3546 47.973C21.3546 47.9488 21.3546 47.9246 21.3546 47.8996C21.2316 47.8116 21.2316 47.8116 21.074 47.7896C21.074 47.7654 21.074 47.7412 21.074 47.7162C20.9968 47.6605 20.9968 47.6605 20.8986 47.6062C20.8499 47.5776 20.8499 47.5776 20.7999 47.5489C20.7068 47.4998 20.6142 47.4598 20.5127 47.4227C20.5127 47.3985 20.5127 47.3743 20.5127 47.3494C20.4495 47.305 20.4495 47.305 20.3635 47.2599C20.1478 47.1373 19.9462 47.0038 19.7441 46.8677C19.5238 46.6938 19.5238 46.6938 19.2497 46.6157C19.2497 46.5915 19.2497 46.5673 19.2497 46.5423C19.1267 46.4543 19.1267 46.4543 18.9691 46.4323C18.9691 46.4081 18.9691 46.3838 18.9691 46.3589C18.8797 46.2936 18.8797 46.2936 18.7675 46.2283C18.7113 46.1938 18.7113 46.1938 18.6538 46.1593C18.5481 46.0962 18.5481 46.0962 18.4078 46.0654C18.4078 46.0412 18.4078 46.017 18.4078 45.9921C18.3245 45.933 18.3245 45.933 18.2178 45.8728C18.0747 45.7885 17.9367 45.7023 17.8029 45.6091C17.6785 45.5071 17.6785 45.5071 17.5658 45.5152C17.5658 45.491 17.5658 45.4667 17.5658 45.4418C17.4764 45.3765 17.4764 45.3765 17.3642 45.3112C17.3268 45.2881 17.2893 45.2653 17.2505 45.2422C17.1448 45.1791 17.1448 45.1791 17.0045 45.1483C17.0045 45.1241 17.0045 45.0999 17.0045 45.075C16.9245 45.0166 16.9245 45.0166 16.8235 44.9601C16.7898 44.9403 16.7561 44.9205 16.7215 44.9003C16.6354 44.8483 16.6354 44.8482 16.5367 44.8549C16.5367 44.8306 16.5367 44.8064 16.5367 44.7815C16.4333 44.711 16.3295 44.645 16.221 44.5797C16.1915 44.5614 16.1616 44.543 16.1312 44.5243C15.9899 44.4381 15.8571 44.3647 15.6947 44.3046C15.6947 44.2804 15.6947 44.2562 15.6947 44.2312C15.6176 44.1755 15.6176 44.1755 15.5193 44.1212C15.4871 44.1021 15.4543 44.0834 15.4206 44.0639C15.3276 44.0148 15.2349 43.9748 15.1334 43.9377C15.1334 43.9135 15.1334 43.8893 15.1334 43.8644C15.0577 43.8112 15.0577 43.8112 14.9608 43.7587C14.8458 43.6934 14.7349 43.6281 14.625 43.557C14.5338 43.4902 14.5338 43.4902 14.4318 43.4975C14.4318 43.4733 14.4318 43.4491 14.4318 43.4242C14.3303 43.349 14.3303 43.349 14.204 43.2727C14.1614 43.2462 14.1193 43.2195 14.0758 43.1923C13.9743 43.1237 13.9743 43.1237 13.8705 43.1307C13.8705 43.1065 13.8705 43.0823 13.8705 43.0573C13.7475 42.9693 13.7475 42.9693 13.5898 42.9473C13.5898 42.9231 13.5898 42.8989 13.5898 42.8739C13.5005 42.8086 13.5005 42.8086 13.3882 42.7433C13.3508 42.7202 13.3134 42.6975 13.2746 42.6743C13.1688 42.6112 13.1688 42.6112 13.0285 42.5804C13.0285 42.5562 13.0285 42.532 13.0285 42.5071C12.9453 42.448 12.9453 42.448 12.8386 42.3878C12.6955 42.3035 12.5575 42.2173 12.4237 42.1241C12.2993 42.0221 12.2993 42.0221 12.1865 42.0302C12.1865 42.006 12.1865 41.9817 12.1865 41.9568C12.1248 41.9447 12.0631 41.9326 11.9994 41.9201C11.9994 41.8959 11.9994 41.8717 11.9994 41.8467C11.8367 41.7132 11.8367 41.7132 11.6252 41.6633C11.6252 41.6391 11.6252 41.6149 11.6252 41.59C11.5452 41.5316 11.5452 41.5316 11.4442 41.4751C11.4105 41.4553 11.3769 41.4355 11.3422 41.4153C11.2562 41.3632 11.2562 41.3632 11.1575 41.3699C11.1575 41.3456 11.1575 41.3214 11.1575 41.2965C11.0541 41.2261 10.9503 41.16 10.8417 41.0947C10.8123 41.0764 10.7823 41.058 10.7519 41.0393C10.6107 40.9531 10.4778 40.8798 10.3155 40.8196C10.3155 40.7954 10.3155 40.7712 10.3155 40.7462C10.2383 40.6905 10.2383 40.6905 10.1401 40.6362C10.1078 40.6171 10.0751 40.5984 10.0414 40.5789C9.94832 40.5298 9.8557 40.4898 9.7542 40.4527C9.7542 40.4285 9.7542 40.4043 9.7542 40.3794C9.67842 40.3262 9.67842 40.3262 9.58159 40.2737C9.46652 40.2084 9.35566 40.1431 9.24574 40.072C9.15453 40.0052 9.15453 40.0052 9.05256 40.0125C9.05256 39.9883 9.05256 39.9641 9.05256 39.9392C8.95105 39.864 8.95105 39.864 8.82476 39.7877C8.78219 39.7612 8.74009 39.7345 8.69659 39.7073C8.59509 39.6387 8.59509 39.6387 8.49124 39.6457C8.49124 39.6215 8.49124 39.5973 8.49124 39.5723C8.36822 39.4843 8.36822 39.4843 8.21059 39.4623C8.21059 39.4381 8.21059 39.4138 8.21059 39.3889C8.12125 39.3236 8.12125 39.3236 8.00898 39.2583C7.97156 39.2352 7.93414 39.2125 7.89532 39.1893C7.7896 39.1262 7.7896 39.1262 7.64928 39.0954C7.64928 39.0712 7.64928 39.047 7.64928 39.0221C7.56601 38.963 7.56601 38.963 7.45937 38.9028C7.31623 38.8185 7.17824 38.7323 7.04446 38.6391C6.92004 38.5371 6.92004 38.5371 6.80731 38.5452C6.80731 38.521 6.80731 38.4967 6.80731 38.4718C6.71469 38.4535 6.71469 38.4535 6.6202 38.4351C6.6202 38.4109 6.6202 38.3867 6.6202 38.3617C6.51683 38.2913 6.41299 38.2253 6.30447 38.16C6.275 38.1416 6.24506 38.1233 6.21466 38.1046C6.07339 38.0184 5.94055 37.945 5.77824 37.8849C5.77824 37.8606 5.77824 37.8364 5.77824 37.8115C5.70106 37.7873 5.62388 37.7631 5.54436 37.7381C5.54436 37.7139 5.54436 37.6897 5.54436 37.6647C5.45642 37.6083 5.36801 37.5558 5.27539 37.5041C5.10139 37.4058 4.94609 37.3078 4.79594 37.1879C4.73466 37.1501 4.67245 37.1134 4.60884 37.0778C4.47085 36.9997 4.35484 36.9153 4.23463 36.821C4.15558 36.7682 4.07606 36.7161 3.99514 36.6651C3.95444 36.6391 3.91375 36.613 3.87165 36.5866C3.77576 36.5202 3.77576 36.5202 3.67332 36.5275C3.65788 36.5033 3.64244 36.4791 3.62654 36.4542Z"/><path fill="#E51E56" d="M76.4594 13.496V34.232C76.4594 36.504 77.0514 38.248 78.2354 39.464C79.4194 40.648 81.0834 41.24 83.2274 41.24C85.4034 41.24 87.0834 40.648 88.2674 39.464C89.4514 38.248 90.0434 36.504 90.0434 34.232V13.496H96.8114V34.184C96.8114 37.032 96.1874 39.448 94.9394 41.432C93.7234 43.384 92.0754 44.856 89.9954 45.848C87.9474 46.84 85.6594 47.336 83.1314 47.336C80.6354 47.336 78.3634 46.84 76.3154 45.848C74.2994 44.856 72.6994 43.384 71.5154 41.432C70.3314 39.448 69.7394 37.032 69.7394 34.184V13.496H76.4594ZM130.96 47H124.24L109.024 24.008V47H102.304V13.448H109.024L124.24 36.488V13.448H130.96V47ZM143.321 13.496V47H136.601V13.496H143.321ZM147.328 30.2C147.328 26.904 148.064 23.96 149.536 21.368C151.04 18.744 153.072 16.712 155.632 15.272C158.224 13.8 161.12 13.064 164.32 13.064C168.064 13.064 171.344 14.024 174.16 15.944C176.976 17.864 178.944 20.52 180.064 23.912H172.336C171.568 22.312 170.48 21.112 169.072 20.312C167.696 19.512 166.096 19.112 164.272 19.112C162.32 19.112 160.576 19.576 159.04 20.504C157.536 21.4 156.352 22.68 155.488 24.344C154.656 26.008 154.24 27.96 154.24 30.2C154.24 32.408 154.656 34.36 155.488 36.056C156.352 37.72 157.536 39.016 159.04 39.944C160.576 40.84 162.32 41.288 164.272 41.288C166.096 41.288 167.696 40.888 169.072 40.088C170.48 39.256 171.568 38.04 172.336 36.44H180.064C178.944 39.864 176.976 42.536 174.16 44.456C171.376 46.344 168.096 47.288 164.32 47.288C161.12 47.288 158.224 46.568 155.632 45.128C153.072 43.656 151.04 41.624 149.536 39.032C148.064 36.44 147.328 33.496 147.328 30.2ZM200.356 47.336C197.22 47.336 194.34 46.6 191.716 45.128C189.092 43.656 187.012 41.624 185.476 39.032C183.94 36.408 183.172 33.448 183.172 30.152C183.172 26.888 183.94 23.96 185.476 21.368C187.012 18.744 189.092 16.696 191.716 15.224C194.34 13.752 197.22 13.016 200.356 13.016C203.524 13.016 206.404 13.752 208.996 15.224C211.62 16.696 213.684 18.744 215.188 21.368C216.724 23.96 217.492 26.888 217.492 30.152C217.492 33.448 216.724 36.408 215.188 39.032C213.684 41.624 211.62 43.656 208.996 45.128C206.372 46.6 203.492 47.336 200.356 47.336ZM200.356 41.336C202.372 41.336 204.148 40.888 205.684 39.992C207.22 39.064 208.42 37.752 209.284 36.056C210.148 34.36 210.58 32.392 210.58 30.152C210.58 27.912 210.148 25.96 209.284 24.296C208.42 22.6 207.22 21.304 205.684 20.408C204.148 19.512 202.372 19.064 200.356 19.064C198.34 19.064 196.548 19.512 194.98 20.408C193.444 21.304 192.244 22.6 191.38 24.296C190.516 25.96 190.084 27.912 190.084 30.152C190.084 32.392 190.516 34.36 191.38 36.056C192.244 37.752 193.444 39.064 194.98 39.992C196.548 40.888 198.34 41.336 200.356 41.336ZM250.148 47H243.428L228.212 24.008V47H221.492V13.448H228.212L243.428 36.488V13.448H250.148V47Z"/></svg>